<?xml version="1.0" standalone="no"?>
<!DOCTYPE svg PUBLIC "-//W3C//DTD SVG 20010904//EN"
 "http://www.w3.org/TR/2001/REC-SVG-20010904/DTD/svg10.dtd">
<svg version="1.0" xmlns="http://www.w3.org/2000/svg"
 width="394.000000pt" height="394.000000pt" viewBox="0 0 394.000000 394.000000"
 preserveAspectRatio="xMidYMid meet">
<metadata>
Created by potrace 1.11, written by Peter Selinger 2001-2013
</metadata>
<g transform="translate(0.000000,394.000000) scale(0.100000,-0.100000)"
fill="#000000" stroke="none">
<path d="M2555 3458 c-159 -72 -389 -170 -510 -220 -265 -108 -331 -143 -413
-222 -60 -57 -62 -61 -40 -67 21 -5 20 -7 -19 -27 -45 -24 -79 -64 -68 -82 3
-6 24 -19 46 -30 21 -11 39 -27 39 -35 0 -8 10 -20 22 -26 21 -11 20 -12 -18
-32 -21 -11 -33 -22 -26 -24 6 -3 10 -9 6 -14 -3 -5 0 -9 7 -9 6 0 0 -9 -15
-21 -30 -24 -33 -37 -10 -54 15 -10 13 -13 -15 -18 -38 -8 -40 -21 -3 -35 76
-29 111 -25 273 32 267 94 348 127 343 141 -7 17 26 35 65 35 17 0 38 8 48 19
10 10 40 22 67 26 27 3 55 9 62 12 9 3 14 -2 14 -15 0 -39 -292 -992 -420
-1374 -39 -113 -70 -218 -70 -232 0 -14 -5 -26 -11 -26 -6 0 -86 154 -178 343
-241 491 -310 601 -421 675 -137 92 -262 73 -381 -55 -67 -73 -128 -196 -203
-406 -113 -316 -177 -572 -201 -805 -19 -174 -19 -174 9 -129 12 20 25 39 28
42 3 3 -5 -32 -17 -78 -13 -46 -26 -120 -30 -164 -9 -106 2 -113 67 -45 32 33
58 52 72 52 13 0 29 7 36 15 24 29 27 14 10 -47 -9 -35 -20 -79 -23 -98 -6
-34 -6 -35 8 -10 l14 25 1 -25 c1 -23 2 -23 10 -5 4 11 5 -16 2 -62 -5 -89 5
-106 32 -55 21 37 20 26 -4 -43 -11 -32 -20 -69 -20 -83 0 -25 0 -25 30 8 56
62 126 210 175 365 26 83 94 297 151 478 65 202 103 335 99 347 -13 43 14 17
45 -42 19 -35 42 -70 52 -78 9 -8 40 -67 68 -130 28 -63 60 -124 71 -136 10
-11 39 -61 63 -110 140 -289 289 -450 438 -474 64 -10 98 2 157 55 88 79 153
212 241 489 48 150 144 534 161 638 l12 78 43 20 c54 27 54 26 101 145 65 160
78 206 62 216 -11 6 -9 12 6 29 10 11 19 28 20 38 0 9 11 39 24 66 13 26 25
71 27 99 2 29 8 79 14 112 5 33 10 105 10 160 0 55 3 117 6 137 l6 37 54 -62
c41 -47 63 -86 92 -161 35 -89 42 -99 66 -102 15 -1 47 -14 71 -28 24 -14 56
-26 72 -26 24 0 32 -7 50 -44 21 -43 23 -44 62 -39 29 4 52 -1 85 -17 59 -28
92 -68 112 -136 17 -59 33 -66 46 -18 6 21 2 45 -16 90 -56 140 -270 600 -460
989 -73 149 -145 297 -162 331 l-29 61 -290 -129z m-915 -758 c0 -5 -12 -10
-27 -9 l-28 1 25 8 c14 4 26 8 28 9 1 1 2 -3 2 -9z m-906 -2139 c-10 -28 -20
-49 -22 -46 -2 2 4 27 14 54 10 28 20 49 22 46 2 -2 -4 -27 -14 -54z"/>
</g>
</svg>
