<svg width="209" height="81" viewBox="0 0 209 81" fill="none" xmlns="http://www.w3.org/2000/svg">
<path d="M61.0547 44.6675C61.0547 45.3169 60.9819 45.9303 60.9092 46.5797H45.0813C45.5544 48.9971 47.1189 50.2599 49.4476 50.2599C51.1578 50.2599 52.5768 49.5022 53.3045 48.2755H60.6181C59.1263 53.1103 54.7964 56.1049 49.4476 56.1049C42.789 56.1049 37.877 51.2702 37.877 44.8479C37.877 38.3895 42.7526 33.627 49.4476 33.627C56.2882 33.627 61.0547 38.4978 61.0547 44.6675ZM45.1905 42.5748H53.8139C53.159 40.4461 51.6308 39.3276 49.4113 39.3276C47.3009 39.3276 45.8091 40.4822 45.1905 42.5748Z" fill="white"/>
<path d="M64.1113 46.3633V34.3125H71.4613V46.0386C71.4613 48.2755 72.662 49.5744 74.6268 49.5744C76.5917 49.5744 77.756 48.2394 77.756 46.0386V34.3125H85.1059V46.3633C85.1059 52.2804 80.9216 56.141 74.6268 56.141C68.3321 56.141 64.1113 52.2804 64.1113 46.3633Z" fill="white"/>
<path d="M97.659 56.141C91.8373 56.141 88.3079 53.1103 88.2715 48.5281H95.3303C95.3303 50.0796 96.4219 50.8012 97.8046 50.8012C98.8961 50.8012 99.8786 50.26 99.8786 49.1776C99.8786 47.9508 98.2776 47.6261 96.2036 47.2653C92.8925 46.7241 88.5262 45.7499 88.5262 40.6266C88.5262 36.4052 92.1648 33.6631 97.6226 33.6631C103.044 33.6631 106.574 36.5134 106.646 40.807H99.7694C99.7694 39.472 98.8598 38.8226 97.5135 38.8226C96.3491 38.8226 95.5486 39.3998 95.5486 40.374C95.5486 41.5646 97.186 41.8533 99.1872 42.2141C102.535 42.7914 107.01 43.513 107.01 48.8528C107.083 53.2546 103.299 56.141 97.659 56.141Z" fill="white"/>
<path d="M124.658 49.0691V55.4553H119.6C114.906 55.4553 112.032 52.6049 112.032 47.9145V39.9408H108.139V38.2089L117.672 28.1426H119.164V34.3123H124.512V39.9047H119.345V46.6156C119.345 48.131 120.255 49.033 121.82 49.033H124.658V49.0691Z" fill="white"/>
<path d="M141.976 34.2041V40.8789H139.138C136.555 40.8789 135.463 41.9974 135.463 44.7034V55.4553H128.113V34.3484H133.025L134.153 36.6936C135.645 34.9618 137.501 34.2402 140.011 34.2402L141.976 34.2041Z" fill="white"/>
<path d="M166.356 44.6675C166.356 45.3169 166.283 45.9303 166.21 46.5797H150.382C150.855 48.9971 152.42 50.2599 154.748 50.2599C156.459 50.2599 157.878 49.5022 158.605 48.2755H165.919C164.427 53.1103 160.097 56.1049 154.748 56.1049C148.09 56.1049 143.178 51.2702 143.178 44.8479C143.178 38.3895 148.053 33.627 154.748 33.627C161.589 33.627 166.356 38.4978 166.356 44.6675ZM150.491 42.5748H159.115C158.46 40.4461 156.932 39.3276 154.712 39.3276C152.565 39.3276 151.11 40.4822 150.491 42.5748Z" fill="white"/>
<path d="M191.643 44.6675C191.643 45.3169 191.57 45.9303 191.497 46.5797H175.669C176.142 48.9971 177.707 50.2599 180.036 50.2599C181.746 50.2599 183.165 49.5022 183.892 48.2755H191.206C189.714 53.1103 185.384 56.1049 180.036 56.1049C173.377 56.1049 168.465 51.2702 168.465 44.8479C168.465 38.3895 173.341 33.627 180.036 33.627C186.876 33.627 191.643 38.4978 191.643 44.6675ZM175.778 42.5748H184.402C183.747 40.4461 182.219 39.3276 179.999 39.3276C177.852 39.3276 176.397 40.4822 175.778 42.5748Z" fill="white"/>
<path d="M209 49.0691V55.4553H203.942C199.248 55.4553 196.374 52.6049 196.374 47.9145V39.9408H192.48V38.2089L202.014 28.1426H203.505V34.3123H208.854V39.9047H203.687V46.6156C203.687 48.131 204.597 49.033 206.162 49.033H209V49.0691Z" fill="white"/>
<path d="M47.5562 10.1025C47.4107 9.92205 47.2651 9.66949 47.0468 9.30869C47.0104 9.20045 46.9377 9.12829 46.8649 9.02004C46.8285 8.98396 46.7921 8.9118 46.7921 8.87572C46.7557 8.76748 46.683 8.69532 46.6466 8.58708C46.4283 8.15412 46.21 7.68508 45.9553 7.17996C44.9728 5.15947 43.8085 2.66993 42.5714 0C41.6617 0.396882 40.7157 0.793764 39.8061 1.22673C39.7697 0.938085 39.6241 1.11849 39.4058 1.40713C38.3142 1.87617 37.2227 2.34521 36.1311 2.85033C34.5665 3.53586 33.0019 4.1853 31.5465 4.83474C29.3997 5.73675 27.544 6.49443 26.5252 6.85523L26.2342 6.99955C24.4149 7.68508 22.2681 8.69532 20.9218 9.74165C20.3397 10.2829 19.7575 10.8962 19.1753 11.4735C19.5756 11.5096 19.9758 11.5457 20.3033 11.6178C19.5756 11.9065 18.8478 12.159 18.6659 12.4837C17.3196 13.6022 18.4476 13.7465 19.3209 14.2517C19.8666 14.396 19.5028 15.1176 20.3033 15.1537C19.8303 15.3341 19.5756 15.4423 19.1025 15.6227C19.1753 15.9474 20.5216 14.865 20.376 15.4784C19.8666 15.5506 19.43 15.9474 18.957 16.1278C19.2845 16.4526 20.6671 15.5866 20.7763 16.0196C20.558 16.2361 19.2117 16.0196 19.3209 16.5608C19.3572 16.669 19.8303 16.4886 20.085 16.3804C18.6659 17.1381 18.0837 17.9679 19.6483 17.9679C19.1753 18.1483 18.4112 18.2205 17.9746 18.4731C18.2293 18.4009 18.7023 18.3287 18.9206 18.2205C18.6295 18.3287 18.3384 18.437 18.0837 18.5452C18.1565 18.5813 18.2293 18.6535 18.3384 18.6895C18.5568 18.6535 18.8115 18.6174 19.0298 18.5452C18.8478 18.6174 18.6659 18.6895 18.4476 18.7617C18.6659 18.8699 18.8842 18.9421 19.1389 19.0503C19.9394 19.0864 20.7763 19.3029 21.1401 19.1586C24.1238 18.1844 27.1074 17.1381 30.0183 15.9474C29.9455 15.767 29.6908 15.6227 29.9091 15.4423C30.6005 14.9372 31.4737 15.3341 32.1287 14.829C32.0923 14.7207 32.0923 14.6125 32.0559 14.5042C32.7108 14.396 33.3658 14.2878 34.0571 14.1795C34.2754 14.0713 34.4937 13.963 34.712 13.8548C34.6757 14.1795 34.5665 14.5764 34.4937 15.0454C33.8024 17.3546 33.0747 19.6998 32.3834 22.0089C31.4009 25.2922 30.3821 28.5394 29.3633 31.8227C28.3081 35.106 27.253 38.3532 26.0886 41.6004C26.0522 41.7808 25.9795 41.9973 25.9067 42.2499C25.8703 42.3942 25.8339 42.5025 25.7975 42.6829C25.7611 42.755 25.7611 42.8272 25.7248 42.8993C25.7611 42.9354 25.7611 43.0076 25.7611 43.1158C25.7611 43.188 25.7611 43.3323 25.7248 43.4405C25.7248 43.5127 25.6884 43.5849 25.6884 43.657C25.652 43.7292 25.652 43.8374 25.5792 43.8735C25.5064 43.8735 25.4701 43.8374 25.3973 43.8013C25.3609 43.7653 25.2881 43.6931 25.2517 43.6209C25.1426 43.4766 25.0334 43.3323 24.9607 43.1519L24.9243 43.0797L24.6696 42.5746L24.1238 41.4922C23.7599 40.7345 23.3961 40.0129 23.0322 39.2552C22.6684 38.4976 22.3045 37.7759 21.9406 37.0183C21.4676 36.0441 20.9946 35.106 20.5216 34.1318C19.8666 32.7969 19.2117 31.498 18.5204 30.3074C17.829 29.1167 17.1377 27.9621 16.4464 27.0962C15.7187 26.2303 15.0273 25.6169 14.336 25.22C14.0085 25.0396 13.6811 24.8592 13.3536 24.7149C13.0261 24.6067 12.6986 24.5345 12.3712 24.4624C12.1892 24.4263 12.0437 24.3902 11.8254 24.3541C11.7162 24.3541 11.6435 24.318 11.5343 24.318H11.4615H11.4251C11.4251 24.318 11.4251 24.3902 11.4251 24.3541H11.3888L11.2432 24.3902C10.843 24.4624 10.5519 24.5345 10.2608 24.6067C10.188 24.6428 10.1153 24.6428 10.0425 24.6788C9.96971 24.7149 9.89694 24.751 9.82416 24.751C9.67862 24.7871 9.56946 24.8953 9.42392 24.9314C9.31476 25.0036 9.16922 25.0757 9.06006 25.1479C8.95091 25.22 8.80536 25.3283 8.69621 25.4004C7.75017 26.086 6.98607 27.0601 6.4039 28.0343C6.29474 28.2147 6.22197 28.3951 6.11281 28.5755C6.00366 28.7559 5.93088 28.9363 5.82173 29.1528C4.94847 30.8846 4.18437 33.0134 3.45665 35.1421C3.38388 35.3947 3.27472 35.6833 3.20195 35.9359L2.94725 36.6575L2.76532 37.1987L2.61978 37.6316C2.43785 38.245 2.25592 38.8223 2.07399 39.4356C1.41905 41.8169 0.873259 44.1261 0.545787 46.0383C0.327472 47.8062 0.145543 49.6463 0 51.4503C0.400244 50.6927 0.800488 50.0071 1.16435 49.4298C0.654944 51.1617 0.145543 52.9296 0.181929 53.6512C-0.327472 57.5118 0.800488 55.5635 1.96483 54.3368C2.58339 53.3987 2.72893 54.914 3.49304 53.3987C3.16556 54.5532 2.98364 55.1305 2.65616 56.2851C2.94725 56.5016 3.45665 52.641 3.78412 53.6151C3.34749 54.6976 3.20195 55.9964 2.87448 57.151C3.42026 56.8624 4.11159 53.1822 4.51184 53.4708C4.43907 54.1203 3.05641 56.5737 3.52942 56.9345C3.63858 57.0067 3.96605 55.8521 4.1116 55.2748C3.31111 58.8829 3.31111 61.0116 4.76654 57.8726C4.43907 58.9911 3.78412 60.5425 3.56581 61.7693C3.74774 61.192 4.11159 60.1817 4.25714 59.6405C4.07521 60.3261 3.89328 60.9755 3.71135 61.661C3.82051 61.5889 3.92967 61.4806 4.03882 61.3724C4.22075 60.8673 4.40268 60.3982 4.58461 59.857C4.47545 60.29 4.32991 60.759 4.22075 61.192C4.47545 60.9033 4.76654 60.5425 5.02124 60.1817C5.78534 58.6664 6.69499 57.2592 6.94969 56.3933C8.00488 52.9296 9.09645 49.4659 10.2244 46.0383C10.7702 44.3065 11.3524 42.6107 11.8982 40.9149L12.1165 40.3016L12.2256 39.9768L12.262 39.9047V39.8686C12.3348 39.7243 12.2984 39.7604 12.2984 39.7604L12.3348 39.7243C12.1892 39.5078 12.0437 39.3274 12.0073 39.147C11.9709 38.9305 12.1165 38.9666 12.1892 39.1109C12.2984 39.2192 12.3348 39.4356 12.3348 39.2192C12.2984 39.0027 12.2984 38.7862 12.262 38.5336C12.2984 38.5697 12.3348 38.6419 12.3712 38.7501C12.4076 38.8584 12.4076 38.9666 12.4439 39.0748C12.4803 39.2913 12.4803 39.4356 12.4439 39.58C12.4803 39.58 12.5167 39.58 12.5531 39.58C12.5531 39.58 12.5895 39.58 12.5895 39.616H12.6259C12.6259 39.616 12.6259 39.616 12.6623 39.6521L12.6986 39.7243C13.0261 40.3376 13.3536 40.9871 13.6811 41.6004C13.7538 41.4922 13.863 41.42 14.0085 41.6365C14.5907 42.6829 15.2093 44.1982 15.937 45.7857C16.0825 46.0022 16.1917 46.2187 16.3372 46.4352C16.4828 46.5795 16.6283 46.5795 16.7011 46.5795C16.9558 47.1568 17.2105 47.698 17.4652 48.2031C17.7563 48.7804 18.011 49.3216 18.2657 49.8628C18.8842 50.9091 19.5028 51.9194 20.1213 52.8214C20.7763 53.7595 21.4312 54.5532 22.1226 55.2027C22.8139 55.816 23.5052 56.2851 24.1602 56.5737C24.4876 56.718 24.8515 56.8624 25.2154 56.9345C25.5792 56.9706 25.9795 57.0428 26.4889 57.0788C26.7436 57.0428 26.9255 56.9345 27.1074 56.8624C27.2893 56.7902 27.4349 56.718 27.5804 56.6098C27.8715 56.4294 28.1626 56.2129 28.4537 55.9243C29.0359 55.4192 29.5817 54.7336 30.1274 53.8316C30.6368 52.9657 31.1099 51.8833 31.5465 50.7648C31.9831 49.6463 32.347 48.5278 32.7108 47.4094C32.8928 46.8321 33.0747 46.2909 33.2566 45.7136C33.3658 45.3889 33.4022 45.2445 33.4385 45.0641L33.5841 44.5229C33.766 43.7653 33.9843 43.0437 34.1663 42.286C34.5665 40.7706 34.9304 39.2552 35.3306 37.7399C35.5489 36.5131 35.7309 35.3225 35.9856 34.1318C36.0219 34.1318 36.0219 34.1318 36.0583 34.1318C36.1675 34.0236 36.2403 33.8793 36.313 33.735C36.2766 33.8432 36.2403 33.9875 36.1675 34.0958C36.3494 34.0597 36.5313 33.9875 36.7133 33.9154C37.1499 33.5906 37.6957 33.302 37.8048 33.0494C38.6053 31.2454 39.333 29.3693 39.9516 27.4931C39.7697 27.4209 39.5877 27.4931 39.5514 27.3127C39.5514 26.7715 40.2427 26.555 40.2427 26.0138C40.1699 25.9777 40.0608 25.9417 39.988 25.9056C40.2063 25.5448 40.4974 25.22 40.7521 24.8592C40.934 24.1016 41.116 23.3439 41.2251 22.5862C41.116 22.5862 41.0068 22.5501 41.0068 22.478C41.0432 22.1532 41.2615 21.7563 41.407 21.3234C41.407 21.2512 41.407 21.1791 41.407 21.1069C41.3707 21.0347 41.2615 20.9987 41.2251 20.9626C41.2979 20.7822 41.3707 20.6018 41.4434 20.4575C41.5162 18.6895 41.589 16.8494 41.6254 14.9372C41.7345 15.1176 41.8801 15.298 41.9892 15.4784C42.6078 16.1278 43.2263 16.7773 43.663 17.4267C44.2451 18.4731 44.6818 19.9523 45.1184 21.0347C46.1372 20.4214 47.7745 22.7666 48.6478 21.7924C48.9389 22.514 49.3755 23.5964 49.703 23.5243C50.6854 23.3078 51.9953 23.38 53.3416 25.0396C53.7782 25.7252 53.9237 27.0241 54.2148 27.2045C54.6879 27.4931 54.4331 25.9777 54.9062 26.2664C52.6866 20.71 49.9941 15.6227 47.5562 10.1025Z" fill="#E60088"/>
</svg>
