<?xml version="1.0" encoding="utf-8"?>
<!-- Generator: Adobe Illustrator 25.0.1, SVG Export Plug-In . SVG Version: 6.00 Build 0)  -->
<svg version="1.1" id="Layer_1" xmlns="http://www.w3.org/2000/svg" xmlns:xlink="http://www.w3.org/1999/xlink" x="0px" y="0px"
	 viewBox="-50 0 250 160" xml:space="preserve">
<style type="text/css">
	.st0{fill:#010101;}
	.st1{fill:#E60088;}
</style>
<path class="st1" d="M130.7,28c-0.4-0.5-0.8-1.2-1.4-2.2c-0.1-0.3-0.3-0.5-0.5-0.8c-0.1-0.1-0.2-0.3-0.2-0.4
	c-0.1-0.3-0.3-0.5-0.4-0.8c-0.6-1.2-1.2-2.5-1.9-3.9c-2.7-5.6-5.9-12.5-9.3-19.9c-2.5,1.1-5.1,2.2-7.6,3.4c-0.1-0.8-0.5-0.3-1.1,0.5
	c-3,1.3-6,2.6-9,4c-4.3,1.9-8.6,3.7-12.6,5.5c-5.9,2.5-11,4.6-13.8,5.6l-0.8,0.4c-5,1.9-10.9,4.7-14.6,7.6c-1.6,1.5-3.2,3.2-4.8,4.8
	c1.1,0.1,2.2,0.2,3.1,0.4c-2,0.8-4,1.5-4.5,2.4c-3.7,3.1-0.6,3.5,1.8,4.9c1.5,0.4,0.5,2.4,2.7,2.5c-1.3,0.5-2,0.8-3.3,1.3
	c0.2,0.9,3.9-2.1,3.5-0.4c-1.4,0.2-2.6,1.3-3.9,1.8c0.9,0.9,4.7-1.5,5-0.3c-0.6,0.6-4.3,0-4,1.5c0.1,0.3,1.4-0.2,2.1-0.5
	c-3.9,2.1-5.5,4.4-1.2,4.4c-1.3,0.5-3.4,0.7-4.6,1.4l0,0c0.7-0.2,2-0.4,2.6-0.7c-0.8,0.3-1.6,0.6-2.3,0.9c0.2,0.1,0.4,0.3,0.7,0.4
	c0.6-0.1,1.3-0.2,1.9-0.4c-0.5,0.2-1,0.4-1.6,0.6c0.6,0.3,1.2,0.5,1.9,0.8c2.2,0.1,4.5,0.7,5.5,0.3c8.2-2.7,16.4-5.6,24.4-8.9
	c-0.2-0.5-0.9-0.9-0.3-1.4c1.9-1.4,4.3-0.3,6.1-1.7c-0.1-0.3-0.1-0.6-0.2-0.9c1.8-0.3,3.6-0.6,5.5-0.9c0.6-0.3,1.2-0.6,1.8-0.9
	c-0.1,0.9-0.4,2-0.6,3.3C92.9,48.1,90.9,54.6,89,61c-2.7,9.1-5.5,18.1-8.3,27.2c-2.9,9.1-5.8,18.1-9,27.1c-0.1,0.5-0.3,1.1-0.5,1.8
	c-0.1,0.4-0.2,0.7-0.3,1.2c-0.1,0.2-0.1,0.4-0.2,0.6l0,0c0.1,0.1,0.1,0.3,0.1,0.6c0,0.2,0,0.6-0.1,0.9c0,0.2-0.1,0.4-0.1,0.6
	c-0.1,0.2-0.1,0.5-0.3,0.6c-0.2,0-0.3-0.1-0.5-0.2c-0.1-0.1-0.3-0.3-0.4-0.5c-0.3-0.4-0.6-0.8-0.8-1.3l-0.1-0.2l-0.7-1.4l-1.5-3
	c-1-2.1-2-4.1-3-6.2s-2-4.1-3-6.2c-1.3-2.7-2.6-5.3-3.9-8c-1.8-3.7-3.6-7.3-5.5-10.6s-3.8-6.5-5.7-8.9c-2-2.4-3.9-4.1-5.8-5.2
	c-0.9-0.5-1.8-1-2.7-1.4c-0.9-0.3-1.8-0.5-2.7-0.7c-0.5-0.1-0.9-0.2-1.5-0.3c-0.3,0-0.5-0.1-0.8-0.1h-0.2h-0.1l0,0c0,0,0,0.2,0,0.1
	h-0.1l-0.4,0.1c-1.1,0.2-1.9,0.4-2.7,0.6c-0.2,0.1-0.4,0.1-0.6,0.2s-0.4,0.2-0.6,0.2c-0.4,0.1-0.7,0.4-1.1,0.5
	c-0.3,0.2-0.7,0.4-1,0.6s-0.7,0.5-1,0.7c-2.6,1.9-4.7,4.6-6.3,7.3c-0.3,0.5-0.5,1-0.8,1.5s-0.5,1-0.8,1.6
	c-2.4,4.8-4.5,10.7-6.5,16.6c-0.2,0.7-0.5,1.5-0.7,2.2l-0.7,2l-0.5,1.5l-0.4,1.2c-0.5,1.7-1,3.3-1.5,5c-1.8,6.6-3.3,13-4.2,18.3
	c-0.6,4.9-1.1,10-1.5,15c1.1-2.1,2.2-4,3.2-5.6c-1.4,4.8-2.8,9.7-2.7,11.7c-1.4,10.7,1.7,5.3,4.9,1.9c1.7-2.6,2.1,1.6,4.2-2.6
	c-0.9,3.2-1.4,4.8-2.3,8c0.8,0.6,2.2-10.1,3.1-7.4c-1.2,3-1.6,6.6-2.5,9.8c1.5-0.8,3.4-11,4.5-10.2c-0.2,1.8-4,8.6-2.7,9.6
	c0.3,0.2,1.2-3,1.6-4.6c-2.2,10-2.2,15.9,1.8,7.2c-0.9,3.1-2.7,7.4-3.3,10.8l0,0c0.5-1.6,1.5-4.4,1.9-5.9c-0.5,1.9-1,3.7-1.5,5.6
	c0.3-0.2,0.6-0.5,0.9-0.8c0.5-1.4,1-2.7,1.5-4.2c-0.3,1.2-0.7,2.5-1,3.7c0.7-0.8,1.5-1.8,2.2-2.8c2.1-4.2,4.6-8.1,5.3-10.5
	c2.9-9.6,5.9-19.2,9-28.7c1.5-4.8,3.1-9.5,4.6-14.2l0.6-1.7l0.3-0.9l0.1-0.2v-0.1c0.2-0.4,0.1-0.3,0.1-0.3l0.1-0.1
	c-0.4-0.6-0.8-1.1-0.9-1.6c-0.1-0.6,0.3-0.5,0.5-0.1c0.3,0.3,0.4,0.9,0.4,0.3c-0.1-0.6-0.1-1.2-0.2-1.9c0.1,0.1,0.2,0.3,0.3,0.6
	s0.1,0.6,0.2,0.9c0.1,0.6,0.1,1,0,1.4c0.1,0,0.2,0,0.3,0c0,0,0.1,0,0.1,0.1h0.1l0,0l0,0c0,0,0,0,0.1,0.1l0.1,0.2
	c0.9,1.7,1.8,3.5,2.7,5.2c0.2-0.3,0.5-0.5,0.9,0.1c1.6,2.9,3.3,7.1,5.3,11.5c0.4,0.6,0.7,1.2,1.1,1.8c0.4,0.4,0.8,0.4,1,0.4
	c0.7,1.6,1.4,3.1,2.1,4.5c0.8,1.6,1.5,3.1,2.2,4.6c1.7,2.9,3.4,5.7,5.1,8.2c1.8,2.6,3.6,4.8,5.5,6.6c1.9,1.7,3.8,3,5.6,3.8
	c0.9,0.4,1.9,0.8,2.9,1c1,0.1,2.1,0.3,3.5,0.4c0.7-0.1,1.2-0.4,1.7-0.6c0.5-0.2,0.9-0.4,1.3-0.7c0.8-0.5,1.6-1.1,2.4-1.9
	c1.6-1.4,3.1-3.3,4.6-5.8c1.4-2.4,2.7-5.4,3.9-8.5s2.2-6.2,3.2-9.3c0.5-1.6,1-3.1,1.5-4.7c0.3-0.9,0.4-1.3,0.5-1.8l0.4-1.5
	c0.5-2.1,1.1-4.1,1.6-6.2c1.1-4.2,2.1-8.4,3.2-12.6c0.6-3.4,1.1-6.7,1.8-10c0.1,0,0.1,0,0.2,0c0.3-0.3,0.5-0.7,0.7-1.1
	c-0.1,0.3-0.2,0.7-0.4,1c0.5-0.1,1-0.3,1.5-0.5c1.2-0.9,2.7-1.7,3-2.4c2.2-5,4.2-10.2,5.9-15.4c-0.5-0.2-1,0-1.1-0.5
	c0-1.5,1.9-2.1,1.9-3.6c-0.2-0.1-0.5-0.2-0.7-0.3c0.6-1,1.4-1.9,2.1-2.9c0.5-2.1,1-4.2,1.3-6.3c-0.3,0-0.6-0.1-0.6-0.3
	c0.1-0.9,0.7-2,1.1-3.2c0-0.2,0-0.4,0-0.6c-0.1-0.2-0.4-0.3-0.5-0.4c0.2-0.5,0.4-1,0.6-1.4c0.2-4.9,0.4-10,0.5-15.3
	c0.3,0.5,0.7,1,1,1.5c1.7,1.8,3.4,3.6,4.6,5.4c1.6,2.9,2.8,7,4,10c2.8-1.7,7.3,4.8,9.7,2.1c0.8,2,2,5,2.9,4.8
	c2.7-0.6,6.3-0.4,10,4.2c1.2,1.9,1.6,5.5,2.4,6c1.3,0.8,0.6-3.4,1.9-2.6C144.8,57.4,137.4,43.3,130.7,28z"/>
</svg>
