<svg width="118" height="109" viewBox="0 0 118 109" fill="none" xmlns="http://www.w3.org/2000/svg">
<path d="M7.33321 108.056C6.20666 108.056 5.28613 107.063 5.28613 105.837V78.516C5.28613 77.2903 6.20666 76.2926 7.33321 76.2926H23.4293C24.5558 76.2926 25.4764 77.2855 25.4764 78.516V105.837C25.4764 107.063 24.5558 108.056 23.4293 108.056H7.33321ZM9.38467 103.866L21.6145 103.609L21.3778 80.478L9.38467 80.7298V103.866Z" fill="#E60088"/>
<path d="M36.1418 108.056C35.0153 108.056 34.0947 107.063 34.0947 105.838V62.9049C34.0947 61.6792 35.0153 60.6863 36.1418 60.6863H52.2379C53.3644 60.6863 54.285 61.6792 54.285 62.9049V105.838C54.285 107.063 53.3644 108.056 52.2379 108.056H36.1418ZM38.1889 103.866L50.4231 103.609L50.1864 64.867L38.1889 65.1187V103.866Z" fill="#E60088"/>
<path d="M64.9499 108.056C63.819 108.056 62.8984 107.063 62.8984 105.837V78.516C62.8984 77.2903 63.819 76.2926 64.9499 76.2926H81.046C82.1725 76.2926 83.093 77.2855 83.093 78.516V105.837C83.093 107.063 82.1725 108.056 81.046 108.056H64.9499ZM66.997 103.866L79.2268 103.609L78.9901 80.478L66.997 80.7298V103.866Z" fill="#E60088"/>
<path d="M93.7531 108.056C92.6266 108.056 91.7061 107.063 91.7061 105.838V47.2889C91.7061 46.0632 92.6266 45.0703 93.7531 45.0703H109.849C110.98 45.0703 111.901 46.0632 111.901 47.2889V105.833C111.901 107.059 110.98 108.052 109.849 108.052H93.7531V108.056ZM95.809 103.866L108.039 103.61L107.802 49.2558L95.809 49.5075V103.866Z" fill="#E60088"/>
<path d="M76.3292 56.8046C75.9567 56.8046 75.5928 56.6953 75.2684 56.4863C74.2997 55.8544 73.9885 54.4815 74.5671 53.4363L103.761 1.07367C104.138 0.403813 104.791 0 105.519 0C105.891 0 106.255 0.109267 106.571 0.318299C107.044 0.627097 107.377 1.11167 107.504 1.69126C107.636 2.2661 107.557 2.86469 107.268 3.37302L78.0782 55.7356C77.7144 56.396 77.0438 56.8046 76.3292 56.8046Z" fill="#E60088"/>
<path d="M68.3993 59.4174C67.9916 59.4174 67.5927 59.2891 67.2552 59.0373L48.0162 44.9659C47.5647 44.6333 47.2578 44.1297 47.1526 43.5502C47.0518 42.9658 47.1614 42.372 47.4682 41.8827C47.8496 41.2699 48.4852 40.9041 49.1646 40.9041C49.5723 40.9041 49.9712 41.0371 50.3087 41.2841L69.5434 55.3555C69.9993 55.6881 70.3061 56.1917 70.4113 56.776C70.5121 57.3603 70.4025 57.9494 70.0957 58.4387C69.7187 59.0516 69.0787 59.4174 68.3993 59.4174Z" fill="#E60088"/>
<path d="M20.6374 61.5651C20.0193 61.5651 19.4407 61.2705 19.0506 60.7479C18.7043 60.2871 18.5421 59.7075 18.5991 59.1184C18.6561 58.5293 18.9147 57.9972 19.3443 57.6219L38.1932 40.9515C38.5526 40.6284 39.0129 40.4479 39.4819 40.4479C40.1 40.4479 40.6786 40.7424 41.0731 41.265C41.4194 41.7258 41.5816 42.3007 41.5246 42.8945C41.4676 43.4884 41.209 44.0157 40.7794 44.391L21.9305 61.0615C21.5623 61.3893 21.1196 61.5651 20.6374 61.5651Z" fill="#E60088"/>
<path d="M108.675 17.0079C107.75 17.0079 106.934 16.3333 106.702 15.3689L104.05 4.70341L94.494 7.75816C94.3187 7.80567 94.1389 7.83417 93.9592 7.83417C93.0343 7.83417 92.219 7.15481 91.9867 6.18565C91.8376 5.61556 91.9121 5.01696 92.1839 4.50387C92.4601 3.98604 92.9028 3.62023 93.4332 3.46345L105.027 0.0808953C105.198 0.0286367 105.378 0.00488281 105.558 0.00488281C105.917 0.00488281 106.272 0.1094 106.579 0.299431C107.053 0.59398 107.399 1.08806 107.535 1.6534L110.656 14.2097C110.805 14.7846 110.73 15.3832 110.459 15.8963C110.182 16.4093 109.74 16.7799 109.209 16.9319C109.021 16.9842 108.85 17.0079 108.675 17.0079Z" fill="#E60088"/>
<path d="M2.05146 108.379C0.920528 108.379 0 107.386 0 106.161C0 104.935 0.920528 103.937 2.05146 103.937H115.136C116.263 103.937 117.183 104.93 117.183 106.161C117.183 107.386 116.263 108.379 115.136 108.379H2.05146Z" fill="#E60088"/>
<path d="M15.3811 71.1854C11.1642 71.1854 7.73633 67.4704 7.73633 62.9001C7.73633 58.3347 11.1642 54.6196 15.3811 54.6196C19.5936 54.6196 23.0215 58.3347 23.0215 62.9001C23.0215 67.4704 19.5936 71.1854 15.3811 71.1854ZM15.3811 59.0663C13.4305 59.0663 11.8349 60.7908 11.8349 62.9049C11.8349 65.0237 13.4261 66.7482 15.3811 66.7482C17.3361 66.7482 18.9273 65.0237 18.9273 62.9049C18.9273 60.7861 17.3317 59.0663 15.3811 59.0663Z" fill="#E60088"/>
<path d="M44.1853 47.679C39.9728 47.679 36.5449 43.9638 36.5449 39.3983C36.5449 34.8328 39.9772 31.1177 44.1853 31.1177C48.4022 31.1177 51.8301 34.8328 51.8301 39.4031C51.8301 43.9733 48.4022 47.679 44.1853 47.679ZM44.1853 35.5597C42.2347 35.5597 40.6478 37.2842 40.6478 39.4031C40.6478 41.5172 42.2347 43.2417 44.1853 43.2417C46.1359 43.2417 47.7315 41.5172 47.7315 39.4031C47.7315 37.2842 46.1403 35.5597 44.1853 35.5597Z" fill="#E60088"/>
<path d="M72.9978 68.929C68.7853 68.929 65.3574 65.2139 65.3574 60.6484C65.3574 56.0829 68.7853 52.363 72.9978 52.363C77.2103 52.363 80.6382 56.0781 80.6382 60.6484C80.6382 65.2186 77.2059 68.929 72.9978 68.929ZM72.9978 56.805C71.0472 56.805 69.4516 58.5295 69.4516 60.6484C69.4516 62.7625 71.0428 64.487 72.9978 64.487C74.9484 64.487 76.544 62.7625 76.544 60.6484C76.5396 58.5295 74.9484 56.805 72.9978 56.805Z" fill="#E60088"/>
</svg>
