<svg width="612" height="577" viewBox="0 0 612 577" fill="none" xmlns="http://www.w3.org/2000/svg">
<g clip-path="url(#clip0)">
<path d="M91.9511 205.307C88.1921 188.706 84.6003 173.066 81.126 157.388C77.652 141.823 78.8288 140.008 96.0642 134.543C230.844 91.8061 365.647 49.0619 500.431 6.34616C516.42 1.27621 518.602 2.34122 521.723 16.1265C546.879 127.116 571.988 238.119 597.191 349.094C605.442 385.42 582.084 421.61 541.598 434.47C409.189 476.545 276.733 518.523 144.3 560.493C115.731 569.552 89.2356 554.935 81.9609 524.921C71.1534 480.307 61.3099 435.387 51.1373 390.571C40.17 342.246 29.2546 293.927 18.3814 245.573C14.9504 230.309 15.5792 229.524 33.0685 223.956C52.185 217.894 71.3062 211.854 91.9511 205.307ZM503.163 26.4261C368.595 69.0957 235.297 111.363 101.834 153.682C102.422 157.054 102.738 159.567 103.29 162.004C121.528 242.551 140.876 322.769 157.628 403.765C166.178 445.086 184.958 484.064 176.323 530.519C180.462 529.207 184.342 527.976 188.221 526.746C302.643 490.487 417.078 454.179 531.514 417.983C568.858 406.164 584.013 383.385 576.429 349.889C567.945 312.421 559.438 274.96 550.949 237.471C535.09 167.431 519.236 97.4118 503.163 26.4261ZM39.1163 241.205C39.5535 244.805 39.6623 246.955 40.1286 249.015C59.9754 336.89 79.6859 424.83 99.9794 512.564C101.868 520.681 106.621 528.206 111.659 534.874C117.491 542.597 126.296 546.539 138.118 542.543C149.917 538.554 155.721 529.574 156.967 519.606C158.241 509.428 158.14 498.851 156.064 489.239C144.957 437.625 133.069 386.236 121.417 334.773C113.727 300.814 106.156 266.818 98.0482 233.014C97.2589 229.751 92.7285 224.768 90.7343 225.311C73.4922 229.967 56.4458 235.71 39.1163 241.205Z" fill="#E60088"/>
<path d="M344.724 319.056C289.914 336.436 235.739 353.614 180.811 371.031C173.208 337.45 165.733 304.437 158.105 270.751C212.704 253.439 266.902 236.253 322.018 218.777C329.488 251.769 336.963 284.782 344.724 319.056Z" fill="#E60088"/>
<path d="M528.109 293.655C530.222 302.985 532.182 311.643 534.309 321.036C423.607 356.138 313.376 391.091 202.11 426.372C200.154 417.735 198.137 408.825 195.91 398.991C306.024 364.075 416.538 329.033 528.109 293.655Z" fill="#E60088"/>
<path d="M215.605 489.189C213.464 479.733 211.57 471.369 209.462 462.06C320.093 426.98 430.559 391.953 541.919 356.642C543.847 365.153 545.859 374.042 548.062 383.771C437.76 418.747 327.27 453.782 215.605 489.189Z" fill="#E60088"/>
<path d="M519.538 258.467C471.241 273.781 423.979 288.767 376.082 303.955C373.998 294.75 372.052 286.156 369.901 276.657C417.798 261.47 465.319 246.402 513.357 231.169C515.475 240.521 517.535 249.62 519.538 258.467Z" fill="#E60088"/>
<path d="M499.869 168.486C501.987 177.837 503.866 186.138 505.912 195.174C457.992 210.369 410.447 225.444 362.057 240.789C360.096 232.131 358.16 223.578 356.014 214.101C403.817 198.943 451.314 183.882 499.869 168.486Z" fill="#E60088"/>
<path d="M168.666 194.856L180.495 247.097L155.289 255.09L133.768 160.043L158.974 152.05L202.645 194.33L190.788 141.963L216.018 133.963L237.539 229.009L211.533 237.255L168.666 194.856Z" fill="#E60088"/>
<path d="M291.763 189.789L331.619 177.152C332.771 176.786 333.264 176.18 333.073 175.339L329.947 161.533C329.757 160.692 329.074 160.458 327.922 160.824L300.505 169.517C296.837 170.68 293.594 170.605 290.823 169.276C288.053 167.948 286.291 165.623 285.549 162.345L277.418 126.432C276.675 123.154 277.218 120.098 279.08 117.301C280.941 114.503 283.695 112.527 287.386 111.356L342.502 93.8799L347.093 114.158L308.484 126.401C307.426 126.736 307.028 127.426 307.261 128.455L310.444 142.514C310.511 142.808 310.69 143.044 311.039 143.249C311.364 143.461 311.792 143.46 312.31 143.296L339.821 134.573C343.512 133.402 346.755 133.478 349.526 134.806C352.32 136.128 354.081 138.452 354.823 141.73L362.888 177.349C363.631 180.627 363.087 183.683 361.226 186.48C359.364 189.278 356.611 191.254 352.92 192.425L296.393 210.349L291.74 189.797L291.763 189.789Z" fill="#E60088"/>
<path d="M439.109 116.513L444.433 140.027C444.519 140.406 444.75 140.648 445.113 140.803C445.471 140.937 445.829 140.959 446.135 140.862L460.149 136.418C461.301 136.053 461.793 135.446 461.603 134.606L445.016 61.3506L472.433 52.6571L491.499 136.861C492.198 139.95 491.631 142.9 489.798 145.711C487.96 148.501 485.348 150.433 481.986 151.499L434.089 166.686C430.82 167.723 427.766 167.588 424.877 166.296C421.989 165.005 420.205 162.8 419.5 159.69L411.692 125.206L439.109 116.513Z" fill="#E60088"/>
</g>
<defs>
<clipPath id="clip0">
<rect width="543.716" height="422.13" fill="white" transform="matrix(0.953227 -0.302255 0.220836 0.975311 0.0117188 165)"/>
</clipPath>
</defs>
</svg>
