<svg width="1440" height="846" viewBox="0 0 1440 846" fill="none" xmlns="http://www.w3.org/2000/svg">
<path d="M738.527 37H737.801V845.508H738.527V37Z" fill="#2A2C31"/>
<path d="M756.693 37H755.967V845.508H756.693V37Z" fill="#2A2C31"/>
<path d="M774.857 37H774.131V845.508H774.857V37Z" fill="#2A2C31"/>
<path d="M793.022 37H792.295V845.508H793.022V37Z" fill="#2A2C31"/>
<path d="M811.187 37H810.461V845.508H811.187V37Z" fill="#2A2C31"/>
<path d="M829.352 37H828.625V845.508H829.352V37Z" fill="#2A2C31"/>
<path d="M847.516 37H846.789V845.508H847.516V37Z" fill="#2A2C31"/>
<path d="M865.682 37H864.955V845.508H865.682V37Z" fill="#2A2C31"/>
<path d="M883.846 37H883.119V845.508H883.846V37Z" fill="#2A2C31"/>
<path d="M902.01 37H901.283V845.508H902.01V37Z" fill="#2A2C31"/>
<path d="M920.176 37H919.449V845.508H920.176V37Z" fill="#2A2C31"/>
<path d="M938.34 37H937.613V845.508H938.34V37Z" fill="#2A2C31"/>
<path d="M956.505 37H955.778V845.508H956.505V37Z" fill="#2A2C31"/>
<path d="M974.67 37H973.943V845.508H974.67V37Z" fill="#2A2C31"/>
<path d="M992.834 37H992.107V845.508H992.834V37Z" fill="#2A2C31"/>
<path d="M1011 37H1010.27V845.508H1011V37Z" fill="#2A2C31"/>
<path d="M1029.16 37H1028.44V845.508H1029.16V37Z" fill="#2A2C31"/>
<path d="M1047.33 37H1046.6V845.508H1047.33V37Z" fill="#2A2C31"/>
<path d="M1065.49 37H1064.77V845.508H1065.49V37Z" fill="#2A2C31"/>
<path d="M1083.66 37H1082.93V845.508H1083.66V37Z" fill="#2A2C31"/>
<path d="M1101.82 37H1101.1V845.508H1101.82V37Z" fill="#2A2C31"/>
<path d="M1119.99 37H1119.26V845.508H1119.99V37Z" fill="#2A2C31"/>
<path d="M1138.15 37H1137.43V845.508H1138.15V37Z" fill="#2A2C31"/>
<path d="M1156.32 37H1155.59V845.508H1156.32V37Z" fill="#2A2C31"/>
<path d="M1174.48 37H1173.75V845.508H1174.48V37Z" fill="#2A2C31"/>
<path d="M1192.65 37H1191.92V845.508H1192.65V37Z" fill="#2A2C31"/>
<path d="M1210.81 37H1210.08V845.508H1210.81V37Z" fill="#2A2C31"/>
<path d="M1228.98 37H1228.25V845.508H1228.98V37Z" fill="#2A2C31"/>
<path d="M1247.14 37H1246.41V845.508H1247.14V37Z" fill="#2A2C31"/>
<path d="M1265.31 37H1264.58V845.508H1265.31V37Z" fill="#2A2C31"/>
<path d="M1283.47 37H1282.74V845.508H1283.47V37Z" fill="#2A2C31"/>
<path d="M1301.63 37H1300.91V845.508H1301.63V37Z" fill="#2A2C31"/>
<path d="M1319.8 37H1319.07V845.508H1319.8V37Z" fill="#2A2C31"/>
<path d="M1337.96 37H1337.24V845.508H1337.96V37Z" fill="#2A2C31"/>
<path d="M1356.13 37H1355.4V845.508H1356.13V37Z" fill="#2A2C31"/>
<path d="M1374.29 37H1373.57V845.508H1374.29V37Z" fill="#2A2C31"/>
<path d="M1392.46 37H1391.73V845.508H1392.46V37Z" fill="#2A2C31"/>
<path d="M1410.62 37H1409.9V845.508H1410.62V37Z" fill="#2A2C31"/>
<path d="M1428.79 37H1428.06V845.508H1428.79V37Z" fill="#2A2C31"/>
<path d="M1446.59 56.8083H720V57.6165H1446.59V56.8083Z" fill="#2A2C31"/>
<path d="M1446.59 77.0211H720V77.8292H1446.59V77.0211Z" fill="#2A2C31"/>
<path d="M1446.59 97.2337H720V98.0398H1446.59V97.2337Z" fill="#2A2C31"/>
<path d="M1446.59 117.446H720V118.255H1446.59V117.446Z" fill="#2A2C31"/>
<path d="M1446.59 137.659H720V138.465H1446.59V137.659Z" fill="#2A2C31"/>
<path d="M1446.59 157.872H720V158.678H1446.59V157.872Z" fill="#2A2C31"/>
<path d="M1446.59 178.085H720V178.893H1446.59V178.085Z" fill="#2A2C31"/>
<path d="M1446.59 198.297H720V199.103H1446.59V198.297Z" fill="#2A2C31"/>
<path d="M1446.59 218.51H720V219.316H1446.59V218.51Z" fill="#2A2C31"/>
<path d="M1446.59 238.723H720V239.531H1446.59V238.723Z" fill="#2A2C31"/>
<path d="M1446.59 258.935H720V259.742H1446.59V258.935Z" fill="#2A2C31"/>
<path d="M1446.59 279.148H720V279.956H1446.59V279.148Z" fill="#2A2C31"/>
<path d="M1446.59 299.361H720V300.167H1446.59V299.361Z" fill="#2A2C31"/>
<path d="M1446.59 319.574H720V320.38H1446.59V319.574Z" fill="#2A2C31"/>
<path d="M1446.59 339.786H720V340.592H1446.59V339.786Z" fill="#2A2C31"/>
<path d="M1446.59 359.999H720V360.805H1446.59V359.999Z" fill="#2A2C31"/>
<path d="M1446.59 380.212H720V381.018H1446.59V380.212Z" fill="#2A2C31"/>
<path d="M1446.59 400.424H720V401.23H1446.59V400.424Z" fill="#2A2C31"/>
<path d="M1446.59 420.637H720V421.443H1446.59V420.637Z" fill="#2A2C31"/>
<path d="M1446.59 440.85H720V441.656H1446.59V440.85Z" fill="#2A2C31"/>
<path d="M1446.59 461.062H720V461.869H1446.59V461.062Z" fill="#2A2C31"/>
<path d="M1446.59 481.275H720V482.081H1446.59V481.275Z" fill="#2A2C31"/>
<path d="M1446.59 501.488H720V502.294H1446.59V501.488Z" fill="#2A2C31"/>
<path d="M1446.59 521.701H720V522.507H1446.59V521.701Z" fill="#2A2C31"/>
<path d="M1446.59 541.914H720V542.719H1446.59V541.914Z" fill="#2A2C31"/>
<path d="M1446.59 562.126H720V562.932H1446.59V562.126Z" fill="#2A2C31"/>
<path d="M1446.59 582.339H720V583.145H1446.59V582.339Z" fill="#2A2C31"/>
<path d="M1446.59 602.551H720V603.358H1446.59V602.551Z" fill="#2A2C31"/>
<path d="M1446.59 622.764H720V623.572H1446.59V622.764Z" fill="#2A2C31"/>
<path d="M1446.59 642.977H720V643.785H1446.59V642.977Z" fill="#2A2C31"/>
<path d="M1446.59 663.19H720V663.998H1446.59V663.19Z" fill="#2A2C31"/>
<path d="M1446.59 683.402H720V684.21H1446.59V683.402Z" fill="#2A2C31"/>
<path d="M1446.59 703.615H720V704.423H1446.59V703.615Z" fill="#2A2C31"/>
<path d="M1446.59 723.828H720V724.636H1446.59V723.828Z" fill="#2A2C31"/>
<path d="M1446.59 744.04H720V744.849H1446.59V744.04Z" fill="#2A2C31"/>
<path d="M1446.59 764.253H720V765.061H1446.59V764.253Z" fill="#2A2C31"/>
<path d="M1446.59 784.466H720V785.274H1446.59V784.466Z" fill="#2A2C31"/>
<path d="M1446.59 804.679H720V805.487H1446.59V804.679Z" fill="#2A2C31"/>
<path d="M1446.59 824.891H720V825.699H1446.59V824.891Z" fill="#2A2C31"/>
<path d="M19.5254 36.7088H18.7988V845.217H19.5254V36.7088Z" fill="#2A2C31"/>
<path d="M37.6905 36.7088H36.9639V845.217H37.6905V36.7088Z" fill="#2A2C31"/>
<path d="M55.8545 36.7088H55.1279V845.217H55.8545V36.7088Z" fill="#2A2C31"/>
<path d="M74.0196 36.7088H73.293V845.217H74.0196V36.7088Z" fill="#2A2C31"/>
<path d="M92.1846 36.7088H91.458V845.217H92.1846V36.7088Z" fill="#2A2C31"/>
<path d="M110.349 36.7088H109.622V845.217H110.349V36.7088Z" fill="#2A2C31"/>
<path d="M128.514 36.7088H127.787V845.217H128.514V36.7088Z" fill="#2A2C31"/>
<path d="M146.679 36.7088H145.952V845.217H146.679V36.7088Z" fill="#2A2C31"/>
<path d="M164.843 36.7088H164.116V845.217H164.843V36.7088Z" fill="#2A2C31"/>
<path d="M183.008 36.7088H182.281V845.217H183.008V36.7088Z" fill="#2A2C31"/>
<path d="M201.173 36.7088H200.446V845.217H201.173V36.7088Z" fill="#2A2C31"/>
<path d="M219.337 36.7088H218.61V845.217H219.337V36.7088Z" fill="#2A2C31"/>
<path d="M237.502 36.7088H236.775V845.217H237.502V36.7088Z" fill="#2A2C31"/>
<path d="M255.667 36.7088H254.94V845.217H255.667V36.7088Z" fill="#2A2C31"/>
<path d="M273.831 36.7088H273.104V845.217H273.831V36.7088Z" fill="#2A2C31"/>
<path d="M291.996 36.7088H291.27V845.217H291.996V36.7088Z" fill="#2A2C31"/>
<path d="M310.161 36.7088H309.435V845.217H310.161V36.7088Z" fill="#2A2C31"/>
<path d="M328.325 36.7088H327.599V845.217H328.325V36.7088Z" fill="#2A2C31"/>
<path d="M346.49 36.7088H345.764V845.217H346.49V36.7088Z" fill="#2A2C31"/>
<path d="M364.655 36.7088H363.929V845.217H364.655V36.7088Z" fill="#2A2C31"/>
<path d="M382.819 36.7088H382.093V845.217H382.819V36.7088Z" fill="#2A2C31"/>
<path d="M400.984 36.7088H400.258V845.217H400.984V36.7088Z" fill="#2A2C31"/>
<path d="M419.149 36.7088H418.423V845.217H419.149V36.7088Z" fill="#2A2C31"/>
<path d="M437.314 36.7088H436.587V845.217H437.314V36.7088Z" fill="#2A2C31"/>
<path d="M455.479 36.7088H454.752V845.217H455.479V36.7088Z" fill="#2A2C31"/>
<path d="M473.644 36.7088H472.917V845.217H473.644V36.7088Z" fill="#2A2C31"/>
<path d="M491.808 36.7088H491.081V845.217H491.808V36.7088Z" fill="#2A2C31"/>
<path d="M509.973 36.7088H509.246V845.217H509.973V36.7088Z" fill="#2A2C31"/>
<path d="M528.138 36.7088H527.411V845.217H528.138V36.7088Z" fill="#2A2C31"/>
<path d="M546.303 36.7088H545.576V845.217H546.303V36.7088Z" fill="#2A2C31"/>
<path d="M564.467 36.7088H563.74V845.217H564.467V36.7088Z" fill="#2A2C31"/>
<path d="M582.632 36.7088H581.905V845.217H582.632V36.7088Z" fill="#2A2C31"/>
<path d="M600.797 36.7088H600.07V845.217H600.797V36.7088Z" fill="#2A2C31"/>
<path d="M618.961 36.7088H618.234V845.217H618.961V36.7088Z" fill="#2A2C31"/>
<path d="M637.126 36.7088H636.399V845.217H637.126V36.7088Z" fill="#2A2C31"/>
<path d="M655.291 36.7088H654.564V845.217H655.291V36.7088Z" fill="#2A2C31"/>
<path d="M673.455 36.7088H672.729V845.217H673.455V36.7088Z" fill="#2A2C31"/>
<path d="M691.62 36.7088H690.894V845.217H691.62V36.7088Z" fill="#2A2C31"/>
<path d="M709.785 36.7088H709.059V845.217H709.785V36.7088Z" fill="#2A2C31"/>
<path d="M727.586 56.5172H0.99707V57.3253H727.586V56.5172Z" fill="#2A2C31"/>
<path d="M727.586 76.7299H0.99707V77.538H727.586V76.7299Z" fill="#2A2C31"/>
<path d="M727.586 96.9425H0.99707V97.7486H727.586V96.9425Z" fill="#2A2C31"/>
<path d="M727.586 117.155H0.99707V117.963H727.586V117.155Z" fill="#2A2C31"/>
<path d="M727.586 137.368H0.99707V138.174H727.586V137.368Z" fill="#2A2C31"/>
<path d="M727.586 157.581H0.99707V158.387H727.586V157.581Z" fill="#2A2C31"/>
<path d="M727.586 177.793H0.99707V178.602H727.586V177.793Z" fill="#2A2C31"/>
<path d="M727.586 198.006H0.99707V198.812H727.586V198.006Z" fill="#2A2C31"/>
<path d="M727.586 218.219H0.99707V219.025H727.586V218.219Z" fill="#2A2C31"/>
<path d="M727.586 238.432H0.99707V239.24H727.586V238.432Z" fill="#2A2C31"/>
<path d="M727.586 258.644H0.99707V259.45H727.586V258.644Z" fill="#2A2C31"/>
<path d="M727.586 278.857H0.99707V279.665H727.586V278.857Z" fill="#2A2C31"/>
<path d="M727.586 299.07H0.99707V299.876H727.586V299.07Z" fill="#2A2C31"/>
<path d="M727.586 319.282H0.99707V320.089H727.586V319.282Z" fill="#2A2C31"/>
<path d="M727.586 339.495H0.99707V340.301H727.586V339.495Z" fill="#2A2C31"/>
<path d="M727.586 359.708H0.99707V360.514H727.586V359.708Z" fill="#2A2C31"/>
<path d="M727.586 379.92H0.99707V380.727H727.586V379.92Z" fill="#2A2C31"/>
<path d="M727.586 400.133H0.99707V400.939H727.586V400.133Z" fill="#2A2C31"/>
<path d="M727.586 420.346H0.99707V421.152H727.586V420.346Z" fill="#2A2C31"/>
<path d="M727.586 440.559H0.99707V441.365H727.586V440.559Z" fill="#2A2C31"/>
<path d="M727.586 460.771H0.99707V461.577H727.586V460.771Z" fill="#2A2C31"/>
<path d="M727.586 480.984H0.99707V481.79H727.586V480.984Z" fill="#2A2C31"/>
<path d="M727.586 501.197H0.99707V502.003H727.586V501.197Z" fill="#2A2C31"/>
<path d="M727.586 521.409H0.99707V522.216H727.586V521.409Z" fill="#2A2C31"/>
<path d="M727.586 541.622H0.99707V542.428H727.586V541.622Z" fill="#2A2C31"/>
<path d="M727.586 561.835H0.99707V562.641H727.586V561.835Z" fill="#2A2C31"/>
<path d="M727.586 582.047H0.99707V582.853H727.586V582.047Z" fill="#2A2C31"/>
<path d="M727.586 602.26H0.99707V603.067H727.586V602.26Z" fill="#2A2C31"/>
<path d="M727.586 622.473H0.99707V623.281H727.586V622.473Z" fill="#2A2C31"/>
<path d="M727.586 642.686H0.99707V643.494H727.586V642.686Z" fill="#2A2C31"/>
<path d="M727.586 662.898H0.99707V663.707H727.586V662.898Z" fill="#2A2C31"/>
<path d="M727.586 683.111H0.99707V683.919H727.586V683.111Z" fill="#2A2C31"/>
<path d="M727.586 703.324H0.99707V704.132H727.586V703.324Z" fill="#2A2C31"/>
<path d="M727.586 723.536H0.99707V724.345H727.586V723.536Z" fill="#2A2C31"/>
<path d="M727.586 743.749H0.99707V744.557H727.586V743.749Z" fill="#2A2C31"/>
<path d="M727.586 763.962H0.99707V764.77H727.586V763.962Z" fill="#2A2C31"/>
<path d="M727.586 784.175H0.99707V784.983H727.586V784.175Z" fill="#2A2C31"/>
<path d="M727.586 804.387H0.99707V805.196H727.586V804.387Z" fill="#2A2C31"/>
<path d="M727.586 824.6H0.99707V825.408H727.586V824.6Z" fill="#2A2C31"/>
<rect width="99.723" height="846" fill="url(#paint0_linear)"/>
<rect x="1440" y="846" width="99.7231" height="846" transform="rotate(-180 1440 846)" fill="url(#paint1_linear)"/>
<rect y="846" width="99.9999" height="1439" transform="rotate(-90 0 846)" fill="url(#paint2_linear)"/>
<defs>
<linearGradient id="paint0_linear" x1="0" y1="605.716" x2="99.723" y2="605.716" gradientUnits="userSpaceOnUse">
<stop/>
<stop offset="1" stop-opacity="0"/>
</linearGradient>
<linearGradient id="paint1_linear" x1="1440" y1="1451.72" x2="1539.72" y2="1451.72" gradientUnits="userSpaceOnUse">
<stop/>
<stop offset="1" stop-opacity="0"/>
</linearGradient>
<linearGradient id="paint2_linear" x1="0" y1="1876.29" x2="99.9999" y2="1876.29" gradientUnits="userSpaceOnUse">
<stop/>
<stop offset="0.66" stop-opacity="0"/>
</linearGradient>
</defs>
</svg>
