<svg width="190" height="74" viewBox="0 0 190 74" fill="none" xmlns="http://www.w3.org/2000/svg">
<path d="M55.5053 40.8071C55.5053 41.4004 55.4391 41.9608 55.3729 42.5541H40.984C41.414 44.7626 42.8364 45.9163 44.9534 45.9163C46.508 45.9163 47.7981 45.224 48.4596 44.1033H55.1083C53.7521 48.5203 49.8158 51.2561 44.9534 51.2561C38.9001 51.2561 34.4346 46.8392 34.4346 40.9719C34.4346 35.0717 38.867 30.7207 44.9534 30.7207C51.172 30.7207 55.5053 35.1706 55.5053 40.8071ZM41.0832 38.8953H48.9227C48.3273 36.9505 46.9381 35.9287 44.9203 35.9287C43.0018 35.9287 41.6456 36.9835 41.0832 38.8953Z" fill="black"/>
<path d="M58.2842 42.3565V31.3472H64.9659V42.0599C64.9659 44.1035 66.0575 45.2901 67.8437 45.2901C69.6299 45.2901 70.6884 44.0706 70.6884 42.0599V31.3472H77.3702V42.3565C77.3702 47.7623 73.5662 51.2893 67.8437 51.2893C62.1212 51.2893 58.2842 47.7623 58.2842 42.3565Z" fill="black"/>
<path d="M88.7822 51.2893C83.4897 51.2893 80.2811 48.5205 80.248 44.3343H86.6652C86.6652 45.7517 87.6575 46.4109 88.9145 46.4109C89.9068 46.4109 90.7999 45.9165 90.7999 44.9276C90.7999 43.8069 89.3445 43.5103 87.4591 43.1806C84.449 42.6862 80.4796 41.7962 80.4796 37.1156C80.4796 33.259 83.7874 30.7539 88.7491 30.7539C93.6777 30.7539 96.8863 33.3579 96.9525 37.2804H90.7007C90.7007 36.0608 89.8738 35.4675 88.6499 35.4675C87.5914 35.4675 86.8637 35.9949 86.8637 36.8849C86.8637 37.9726 88.3522 38.2363 90.1715 38.5659C93.2146 39.0933 97.2832 39.7526 97.2832 44.631C97.3494 48.6523 93.9093 51.2893 88.7822 51.2893Z" fill="black"/>
<path d="M113.326 44.8285V50.6628H108.728C104.461 50.6628 101.848 48.0588 101.848 43.7737V36.4891H98.3086V34.9069L106.975 25.7104H108.331V31.347H113.194V36.4561H108.497V42.5871C108.497 43.9715 109.324 44.7955 110.746 44.7955H113.326V44.8285Z" fill="black"/>
<path d="M129.07 31.248V37.346H126.49C124.142 37.346 123.15 38.3679 123.15 40.84V50.6627H116.468V31.3799H120.933L121.959 33.5224C123.315 31.9402 125.002 31.281 127.284 31.281L129.07 31.248Z" fill="black"/>
<path d="M151.233 40.8071C151.233 41.4004 151.167 41.9608 151.1 42.5541H136.712C137.142 44.7626 138.564 45.9163 140.681 45.9163C142.236 45.9163 143.526 45.224 144.187 44.1033H150.836C149.48 48.5203 145.543 51.2561 140.681 51.2561C134.628 51.2561 130.162 46.8392 130.162 40.9719C130.162 35.0717 134.595 30.7207 140.681 30.7207C146.9 30.7207 151.233 35.1706 151.233 40.8071ZM136.811 38.8953H144.65C144.055 36.9505 142.666 35.9287 140.648 35.9287C138.696 35.9287 137.373 36.9835 136.811 38.8953Z" fill="black"/>
<path d="M174.222 40.8071C174.222 41.4004 174.156 41.9608 174.09 42.5541H159.701C160.131 44.7626 161.553 45.9163 163.67 45.9163C165.225 45.9163 166.515 45.224 167.176 44.1033H173.825C172.469 48.5203 168.533 51.2561 163.67 51.2561C157.617 51.2561 153.151 46.8392 153.151 40.9719C153.151 35.0717 157.584 30.7207 163.67 30.7207C169.889 30.7207 174.222 35.1706 174.222 40.8071ZM159.8 38.8953H167.64C167.044 36.9505 165.655 35.9287 163.637 35.9287C161.685 35.9287 160.362 36.9835 159.8 38.8953Z" fill="black"/>
<path d="M190.001 44.8285V50.6628H185.403C181.136 50.6628 178.523 48.0588 178.523 43.7737V36.4891H174.983V34.9069L183.65 25.7104H185.006V31.347H189.868V36.4561H185.171V42.5871C185.171 43.9715 185.998 44.7955 187.421 44.7955H190.001V44.8285Z" fill="black"/>
<path d="M43.2329 9.2294C43.1006 9.06459 42.9683 8.83385 42.7698 8.50423C42.7368 8.40534 42.6706 8.33942 42.6045 8.24053C42.5714 8.20757 42.5383 8.14165 42.5383 8.10869C42.5052 8.0098 42.4391 7.94387 42.406 7.84499C42.2075 7.44944 42.0091 7.02094 41.7775 6.55947C40.8844 4.71359 39.8259 2.4392 38.7013 0C37.8743 0.362584 37.0143 0.725167 36.1873 1.12071C36.1542 0.857016 36.0219 1.02183 35.8235 1.28552C34.8311 1.71403 33.8388 2.14254 32.8465 2.60401C31.4241 3.23029 30.0017 3.82361 28.6786 4.41693C26.727 5.24098 25.04 5.93318 24.1139 6.26281L23.8492 6.39465C22.1953 7.02094 20.2437 7.94388 19.0198 8.89978C18.4906 9.39421 17.9614 9.95457 17.4321 10.482C17.796 10.5149 18.1598 10.5479 18.4575 10.6138C17.796 10.8775 17.1344 11.1082 16.969 11.4049C15.7451 12.4267 16.7705 12.5586 17.5644 13.02C18.0606 13.1519 17.7298 13.8111 18.4575 13.8441C18.0275 14.0089 17.796 14.1078 17.3659 14.2726C17.4321 14.5693 18.656 13.5804 18.5237 14.1408C18.0606 14.2067 17.6636 14.5693 17.2336 14.7341C17.5313 15.0307 18.7883 14.2396 18.8875 14.6352C18.6891 14.833 17.4652 14.6352 17.5644 15.1296C17.5975 15.2285 18.0275 15.0637 18.2591 14.9648C16.969 15.657 16.4398 16.4151 17.8621 16.4151C17.4321 16.58 16.7375 16.6459 16.3405 16.8766C16.5721 16.8107 17.0021 16.7448 17.2006 16.6459C16.9359 16.7448 16.6713 16.8437 16.4398 16.9425C16.5059 16.9755 16.5721 17.0414 16.6713 17.0744C16.8698 17.0414 17.1013 17.0085 17.2998 16.9425C17.1344 17.0085 16.969 17.0744 16.7705 17.1403C16.969 17.2392 17.1675 17.3051 17.399 17.404C18.1267 17.437 18.8875 17.6347 19.2183 17.5029C21.9307 16.6129 24.6431 15.657 27.2893 14.5693C27.2232 14.4045 26.9916 14.2726 27.1901 14.1078C27.8186 13.6463 28.6125 14.0089 29.2079 13.5474C29.1748 13.4486 29.1748 13.3497 29.1417 13.2508C29.7371 13.1519 30.3325 13.053 30.961 12.9541C31.1595 12.8552 31.3579 12.7563 31.5564 12.6575C31.5233 12.9541 31.4241 13.3167 31.3579 13.7452C30.7295 15.8548 30.0679 17.9973 29.4394 20.1069C28.5463 23.1065 27.6201 26.073 26.6939 29.0726C25.7347 32.0722 24.7754 35.0388 23.7169 38.0053C23.6838 38.1702 23.6177 38.3679 23.5515 38.5987C23.5185 38.7305 23.4854 38.8294 23.4523 38.9942C23.4192 39.0601 23.4192 39.1261 23.3861 39.192C23.4192 39.2249 23.4192 39.2909 23.4192 39.3898C23.4192 39.4557 23.4192 39.5875 23.3861 39.6864C23.3861 39.7523 23.3531 39.8183 23.3531 39.8842C23.32 39.9501 23.32 40.049 23.2538 40.082C23.1877 40.082 23.1546 40.049 23.0884 40.016C23.0554 39.9831 22.9892 39.9171 22.9561 39.8512C22.8569 39.7194 22.7577 39.5875 22.6915 39.4227L22.6584 39.3568L22.4269 38.8953L21.9307 37.9065C21.5999 37.2143 21.2691 36.555 20.9384 35.8628C20.6076 35.1706 20.2768 34.5114 19.946 33.8192C19.516 32.9292 19.086 32.0722 18.656 31.1822C18.0606 29.9626 17.4652 28.7759 16.8367 27.6882C16.2082 26.6004 15.5797 25.5457 14.9513 24.7546C14.2897 23.9635 13.6612 23.4031 13.0327 23.0405C12.735 22.8757 12.4373 22.7109 12.1396 22.5791C11.8419 22.4802 11.5442 22.4143 11.2465 22.3483C11.0811 22.3154 10.9488 22.2824 10.7503 22.2494C10.6511 22.2494 10.585 22.2165 10.4857 22.2165H10.4196H10.3865C10.3865 22.2165 10.3865 22.2824 10.3865 22.2494H10.3534L10.2211 22.2824C9.85724 22.3483 9.59262 22.4143 9.32799 22.4802C9.26184 22.5131 9.19568 22.5131 9.12953 22.5461C9.06337 22.5791 8.99721 22.612 8.93106 22.612C8.79875 22.645 8.69951 22.7439 8.5672 22.7768C8.46797 22.8428 8.33565 22.9087 8.23642 22.9746C8.13719 23.0405 8.00487 23.1394 7.90564 23.2053C7.04561 23.8316 6.35098 24.7216 5.82173 25.6116C5.72249 25.7764 5.65634 25.9412 5.5571 26.106C5.45787 26.2708 5.39171 26.4356 5.29248 26.6334C4.49861 28.2156 3.80397 30.1604 3.14241 32.1051C3.07625 32.3359 2.97702 32.5996 2.91086 32.8303L2.67932 33.4895L2.51393 33.984L2.38162 34.3795C2.21623 34.9399 2.05084 35.4673 1.88545 36.0276C1.29004 38.2031 0.793872 40.3127 0.49617 42.0597C0.297702 43.6748 0.132312 45.3559 0 47.004C0.363858 46.3118 0.727716 45.6855 1.0585 45.1581C0.595404 46.7403 0.132312 48.3555 0.16539 49.0147C-0.297702 52.5416 0.727716 50.7617 1.78621 49.641C2.34854 48.784 2.48085 50.1684 3.17549 48.784C2.87779 49.8388 2.7124 50.3661 2.41469 51.4209C2.67932 51.6187 3.14241 48.0918 3.44011 48.9817C3.04318 49.9706 2.91086 51.1572 2.61316 52.212C3.10933 51.9483 3.73781 48.5862 4.10167 48.8499C4.03552 49.4432 2.77855 51.6846 3.20857 52.0143C3.3078 52.0802 3.6055 51.0254 3.73781 50.498C3.0101 53.7942 3.0101 55.739 4.33322 52.8713C4.03552 53.8931 3.44011 55.3105 3.24164 56.4312C3.40703 55.9038 3.73781 54.9808 3.87013 54.4864C3.70474 55.1127 3.53935 55.706 3.37396 56.3323C3.47319 56.2664 3.57242 56.1675 3.67166 56.0686C3.83705 55.6071 4.00244 55.1786 4.16783 54.6842C4.06859 55.0797 3.93628 55.5082 3.83705 55.9038C4.06859 55.6401 4.33322 55.3105 4.56476 54.9808C5.2594 53.5964 6.08635 52.3109 6.3179 51.5198C7.27716 48.3555 8.2695 45.1911 9.29492 42.0597C9.79109 40.4775 10.3203 38.9283 10.8165 37.3791L11.015 36.8187L11.1142 36.522L11.1473 36.4561V36.4232C11.2134 36.2913 11.1804 36.3243 11.1804 36.3243L11.2134 36.2913C11.0811 36.0935 10.9488 35.9287 10.9157 35.7639C10.8827 35.5661 11.015 35.5991 11.0811 35.731C11.1804 35.8298 11.2134 36.0276 11.2134 35.8298C11.1804 35.6321 11.1804 35.4343 11.1473 35.2036C11.1804 35.2365 11.2134 35.3024 11.2465 35.4013C11.2796 35.5002 11.2796 35.5991 11.3127 35.698C11.3458 35.8958 11.3458 36.0276 11.3127 36.1595C11.3458 36.1595 11.3788 36.1595 11.4119 36.1595C11.4119 36.1595 11.445 36.1595 11.445 36.1924H11.4781C11.4781 36.1924 11.4781 36.1924 11.5111 36.2254L11.5442 36.2913C11.8419 36.8517 12.1396 37.445 12.4373 38.0053C12.5035 37.9065 12.6027 37.8405 12.735 38.0383C13.2643 38.9942 13.8266 40.3786 14.4882 41.829C14.6205 42.0267 14.7197 42.2245 14.852 42.4223C14.9843 42.5541 15.1166 42.5541 15.1828 42.5541C15.4143 43.0815 15.6459 43.5759 15.8774 44.0374C16.1421 44.5648 16.3736 45.0592 16.6052 45.5537C17.1675 46.5096 17.7298 47.4325 18.2921 48.2566C18.8875 49.1136 19.4829 49.8388 20.1114 50.4321C20.7399 50.9924 21.3684 51.4209 21.9638 51.6846C22.2615 51.8165 22.5923 51.9483 22.923 52.0143C23.2538 52.0472 23.6177 52.1131 24.0808 52.1461C24.3123 52.1131 24.4777 52.0143 24.6431 51.9483C24.8085 51.8824 24.9408 51.8165 25.0731 51.7176C25.3377 51.5528 25.6024 51.355 25.867 51.0913C26.3962 50.6298 26.8924 50.0036 27.3886 49.1795C27.8517 48.3884 28.2817 47.3996 28.6786 46.3777C29.0756 45.3559 29.4063 44.3341 29.7371 43.3122C29.9025 42.7849 30.0679 42.2904 30.2333 41.763C30.3325 41.4664 30.3656 41.3345 30.3987 41.1697L30.531 40.6753C30.6964 39.9831 30.8948 39.3238 31.0602 38.6316C31.4241 37.2472 31.7549 35.8628 32.1187 34.4784C32.3172 33.3577 32.4826 32.2699 32.7141 31.1822C32.7472 31.1822 32.7472 31.1822 32.7803 31.1822C32.8795 31.0833 32.9457 30.9514 33.0118 30.8196C32.9788 30.9185 32.9457 31.0503 32.8795 31.1492C33.0449 31.1163 33.2103 31.0503 33.3757 30.9844C33.7726 30.6877 34.2688 30.4241 34.368 30.1933C35.0958 28.5452 35.7573 26.8312 36.3196 25.1171C36.1542 25.0512 35.9889 25.1171 35.9558 24.9523C35.9558 24.4579 36.5843 24.2601 36.5843 23.7657C36.5181 23.7327 36.4189 23.6998 36.3527 23.6668C36.5512 23.3372 36.8158 23.0405 37.0474 22.7109C37.2127 22.0187 37.3781 21.3265 37.4774 20.6343C37.3781 20.6343 37.2789 20.6013 37.2789 20.5354C37.312 20.2388 37.5104 19.8762 37.6428 19.4806C37.6428 19.4147 37.6428 19.3488 37.6428 19.2829C37.6097 19.2169 37.5104 19.184 37.4774 19.151C37.5435 18.9862 37.6097 18.8214 37.6758 18.6895C37.742 17.0744 37.8081 15.3933 37.8412 13.6463C37.9405 13.8111 38.0728 13.9759 38.172 14.1408C38.7343 14.7341 39.2967 15.3274 39.6936 15.9207C40.2228 16.8766 40.6198 18.2281 41.0167 19.2169C41.9429 18.6566 43.4314 20.7991 44.2253 19.9091C44.4899 20.5684 44.8868 21.5572 45.1845 21.4913C46.0776 21.2935 47.2685 21.3595 48.4923 22.8757C48.8893 23.502 49.0216 24.6886 49.2862 24.8535C49.7162 25.1171 49.4847 23.7327 49.9147 23.9964C47.8969 18.9203 45.4492 14.2726 43.2329 9.2294Z" fill="#E60088"/>
<path d="M60.0701 69.8797C59.574 70.4401 58.8462 70.7038 57.887 70.7038C57.06 70.7038 56.3654 70.473 55.77 70.0116C55.1746 69.5501 54.7446 68.9568 54.4799 68.2646C54.2153 67.5724 54.083 66.8142 54.083 65.9902C54.083 65.1661 54.2153 64.408 54.513 63.7158C54.8107 63.0236 55.2407 62.4632 55.8031 62.0018C56.3985 61.5403 57.06 61.3096 57.8539 61.3096C58.8132 61.3096 59.5409 61.5733 60.037 62.1007L60.434 61.3425H60.8971V64.3091H60.3017C60.3017 63.518 60.0701 62.9247 59.6401 62.4962C59.2101 62.0677 58.6147 61.8699 57.887 61.8699C57.06 61.8699 56.3985 62.2325 55.8692 62.9247C55.34 63.6169 55.1084 64.6387 55.1084 66.0232C55.1084 67.3746 55.373 68.3964 55.9023 69.1216C56.4315 69.8468 57.1262 70.1764 57.9862 70.1764C58.6478 70.1764 59.2101 69.9456 59.6732 69.5171C60.1032 69.0557 60.3347 68.4623 60.3347 67.7042H60.9302V70.7367H60.4671L60.0701 69.8797Z" fill="white"/>
<path d="M67.5127 69.7808C66.9504 70.4071 66.2227 70.7038 65.3626 70.7038C64.5026 70.7038 63.7749 70.4071 63.2126 69.7808C62.6502 69.1546 62.3525 68.3305 62.3525 67.3087C62.3525 66.2869 62.6502 65.4628 63.2126 64.8365C63.7749 64.2102 64.5026 63.9136 65.3626 63.9136C66.2227 63.9136 66.9504 64.2102 67.5127 64.8365C68.075 65.4628 68.3727 66.2869 68.3727 67.3087C68.3727 68.3305 68.075 69.1546 67.5127 69.7808ZM66.8512 65.1991C66.4873 64.6717 65.9911 64.408 65.3626 64.408C64.7342 64.408 64.238 64.6717 63.8741 65.1991C63.5103 65.7265 63.3449 66.4187 63.3449 67.3087C63.3449 68.1657 63.5103 68.8909 63.8741 69.4183C64.238 69.9457 64.7342 70.2093 65.3626 70.2093C65.9911 70.2093 66.4873 69.9457 66.8512 69.4183C67.215 68.8909 67.3804 68.1657 67.3804 67.3087C67.3804 66.4187 67.215 65.7265 66.8512 65.1991Z" fill="white"/>
<path d="M69.3984 70.5718V70.0773H70.3908V61.1776H69.3984V60.6831C70.0931 60.6831 70.5562 60.6831 70.7546 60.6502C70.9531 60.6502 71.1185 60.5842 71.1846 60.5513L71.35 60.6502V70.0773H72.3424V70.5718H69.3984Z" fill="white"/>
<path d="M73.1357 70.5718V70.0773H74.1281V61.1776H73.1357V60.6831C73.8304 60.6831 74.2935 60.6831 74.4919 60.6502C74.6904 60.6502 74.8558 60.5842 74.922 60.5513L75.0873 60.6502V70.0773H76.0797V70.5718H73.1357Z" fill="white"/>
<path d="M80.2149 70.7035C79.3218 70.7035 78.561 70.4069 77.9987 69.7806C77.4364 69.1543 77.1387 68.3303 77.1387 67.2425C77.1387 66.2207 77.4033 65.4296 77.9656 64.8033C78.5279 64.177 79.2226 63.8804 80.0826 63.8804C80.9757 63.8804 81.6704 64.177 82.1335 64.7374C82.5965 65.2977 82.8281 66.0229 82.8281 66.847V67.2425H78.0979V67.4073C78.0979 68.2643 78.2964 68.9565 78.6603 69.451C79.0241 69.9454 79.5534 70.2091 80.2811 70.2091C81.3396 70.2091 82.0342 69.6817 82.365 68.6269L82.7619 68.7588C82.5965 69.385 82.2988 69.8465 81.8688 70.1761C81.4057 70.5387 80.8765 70.7035 80.2149 70.7035ZM80.0495 64.3418C79.4541 64.3418 78.991 64.5726 78.6603 65.034C78.3295 65.4955 78.131 66.0888 78.0979 66.847H81.8357C81.8357 66.1218 81.6704 65.5285 81.4057 65.034C81.108 64.5726 80.678 64.3418 80.0495 64.3418Z" fill="white"/>
<path d="M89.4432 68.6931C89.2778 69.3853 88.9801 69.8797 88.517 70.2093C88.087 70.539 87.5578 70.7038 86.9624 70.7038C86.1023 70.7038 85.4077 70.4071 84.8454 69.7808C84.2831 69.1875 83.9854 68.3635 83.9854 67.3087C83.9854 66.2209 84.2831 65.3969 84.8785 64.8036C85.4739 64.2102 86.1685 63.9136 87.0285 63.9136C87.6901 63.9136 88.2193 64.0784 88.6163 64.408C89.0463 64.7376 89.2447 65.1661 89.2447 65.6276C89.2447 65.8254 89.1786 65.9902 89.0794 66.122C88.9801 66.2539 88.8478 66.2869 88.6493 66.2869C88.4509 66.2869 88.3186 66.2209 88.1863 66.122C88.087 66.0232 88.0209 65.8913 88.0209 65.7265C88.0209 65.5617 88.0539 65.4298 88.1532 65.298C88.2524 65.1661 88.3847 65.1002 88.5832 65.1002C88.3186 64.6058 87.8224 64.3421 87.0947 64.3421C86.4331 64.3421 85.9039 64.6058 85.5069 65.1002C85.11 65.6276 84.9115 66.3528 84.9115 67.2757C84.9115 68.1987 85.11 68.9238 85.4739 69.4183C85.8708 69.9127 86.367 70.1764 86.9624 70.1764C87.9216 70.1764 88.5832 69.616 88.947 68.5283L89.4432 68.6931Z" fill="white"/>
<path d="M93.0815 70.7037C91.8907 70.7037 91.2953 70.0115 91.2953 68.6601V64.5069H90.1045V64.1113H90.3691C90.8653 64.1113 91.2291 63.9465 91.3945 63.6169C91.5599 63.2873 91.6592 62.7928 91.6592 62.1336V61.6392H92.1884V64.0124H94.6362V64.5069H92.2215V68.5282C92.2215 69.649 92.5853 70.2093 93.28 70.2093C93.9415 70.2093 94.2723 69.583 94.2723 68.3634H94.7685C94.7685 69.1216 94.6362 69.7149 94.3715 70.1104C94.0738 70.506 93.6438 70.7037 93.0815 70.7037Z" fill="white"/>
<path d="M105.023 70.6046L103.336 65.1L101.649 70.6046H100.855L99.1349 64.5396H98.4072V64.0452H100.888V64.5396H100.028L101.483 69.6158L103.17 64.0122H103.766L105.519 69.6817L106.908 64.5396H106.114V64.0452H108.132V64.5396H107.438L105.784 70.6046H105.023Z" fill="white"/>
<path d="M110.746 64.0125V70.0775H111.738V70.5719H108.794V70.0775H109.786V64.5399H108.794V64.0454C109.456 64.0454 109.886 64.0454 110.084 64.0125C110.282 63.9795 110.448 63.9466 110.547 63.9136L110.746 64.0125ZM110.712 61.4085C110.812 61.5403 110.878 61.7051 110.878 61.837C110.878 62.0018 110.812 62.1336 110.712 62.2655C110.613 62.3973 110.448 62.4962 110.216 62.4962C109.985 62.4962 109.819 62.4303 109.72 62.2984C109.621 62.1666 109.555 62.0018 109.555 61.837C109.555 61.6722 109.621 61.5403 109.72 61.3755C109.819 61.2437 109.985 61.1777 110.216 61.1777C110.448 61.1777 110.613 61.2437 110.712 61.4085Z" fill="white"/>
<path d="M113.59 69.8795L113.293 70.7035H112.929V68.3632H113.425C113.458 68.9236 113.69 69.3521 114.086 69.7147C114.483 70.0773 115.013 70.2421 115.674 70.2421C116.6 70.2421 117.063 69.8795 117.063 69.1213C117.063 68.7588 116.931 68.4291 116.633 68.2314C116.336 68.0006 115.84 67.8029 115.145 67.638C114.351 67.4403 113.789 67.2095 113.458 66.9458C113.127 66.6492 112.962 66.2536 112.962 65.7592C112.962 65.1989 113.16 64.7703 113.59 64.4407C113.987 64.1111 114.516 63.9463 115.145 63.9463C116.005 63.9463 116.6 64.177 116.997 64.6385L117.196 63.9463H117.593V66.1218H117.097C116.997 65.0011 116.336 64.4407 115.145 64.4407C114.715 64.4407 114.384 64.5396 114.186 64.7703C113.954 64.9681 113.855 65.2318 113.855 65.5614C113.855 65.924 113.987 66.2207 114.252 66.4185C114.516 66.6162 115.013 66.814 115.773 66.9788C116.501 67.1436 117.063 67.3744 117.427 67.671C117.791 67.9677 117.99 68.3962 117.99 68.9565C117.99 69.5169 117.791 69.9454 117.427 70.275C117.063 70.6046 116.534 70.7695 115.84 70.7695C114.814 70.7035 114.086 70.4398 113.59 69.8795Z" fill="white"/>
<path d="M122.257 70.7035C121.364 70.7035 120.603 70.4069 120.041 69.7806C119.478 69.1543 119.181 68.3303 119.181 67.2425C119.181 66.2207 119.445 65.4296 120.008 64.8033C120.57 64.177 121.265 63.8804 122.125 63.8804C123.018 63.8804 123.712 64.177 124.175 64.7374C124.639 65.2977 124.87 66.0229 124.87 66.847V67.2425H120.14V67.4073C120.14 68.2643 120.338 68.9565 120.702 69.451C121.066 69.9454 121.595 70.2091 122.323 70.2091C123.382 70.2091 124.076 69.6817 124.407 68.6269L124.804 68.7588C124.639 69.385 124.341 69.8465 123.911 70.1761C123.481 70.5387 122.918 70.7035 122.257 70.7035ZM122.125 64.3418C121.529 64.3418 121.066 64.5726 120.735 65.034C120.405 65.4955 120.206 66.0888 120.173 66.847H123.911C123.911 66.1218 123.745 65.5285 123.481 65.034C123.183 64.5726 122.72 64.3418 122.125 64.3418Z" fill="white"/>
<path d="M125.862 70.5718V70.0773H126.855V61.1776H125.862V60.6831C126.557 60.6831 127.02 60.6831 127.219 60.6502C127.417 60.6502 127.582 60.5842 127.649 60.5513L127.814 60.6502V70.0773H128.806V70.5718H125.862Z" fill="white"/>
<path d="M130.725 74C130.295 74 129.964 73.8681 129.699 73.6374C129.435 73.4066 129.302 73.077 129.302 72.7474C129.302 72.5496 129.368 72.3519 129.468 72.253C129.6 72.1211 129.732 72.0552 129.898 72.0552C130.063 72.0552 130.195 72.0882 130.295 72.1871C130.394 72.2859 130.46 72.4178 130.46 72.5826C130.46 72.9452 130.295 73.143 129.997 73.1759C130.129 73.4067 130.361 73.5055 130.658 73.5055C131.022 73.5055 131.287 73.3407 131.485 73.0441C131.684 72.7144 132.015 71.9893 132.445 70.8356C132.511 70.7038 132.544 70.5719 132.577 70.506L129.997 64.5069H129.17V64.0454H131.816V64.5069H130.989L133.04 69.2864L134.859 64.5069H133.999V64.0454H136.216V64.5069H135.422L133.073 70.7697C132.577 72.0882 132.18 72.9452 131.882 73.3737C131.651 73.8022 131.254 74 130.725 74Z" fill="white"/>
<path d="M137.605 70.0443C137.605 70.2091 137.539 70.3409 137.44 70.5057C137.34 70.6376 137.142 70.7365 136.91 70.7365C136.679 70.7365 136.514 70.6705 136.381 70.5057C136.249 70.3409 136.216 70.2091 136.216 70.0443C136.216 69.8794 136.282 69.7146 136.381 69.5828C136.514 69.418 136.679 69.3521 136.91 69.3521C137.142 69.3521 137.307 69.418 137.44 69.5828C137.539 69.7146 137.605 69.8794 137.605 70.0443Z" fill="white"/>
</svg>
