<svg width="122" height="100" viewBox="0 0 122 100" fill="none" xmlns="http://www.w3.org/2000/svg">
<path d="M80.7979 46.0827C80.2298 46.0827 79.6838 45.8449 79.3006 45.4353C78.9219 45.0346 78.7237 44.5061 78.7413 43.96C78.7589 43.4139 78.9879 42.9031 79.3887 42.5243L107.886 15.6955C108.265 15.3344 108.772 15.1362 109.296 15.1362C109.859 15.1362 110.406 15.374 110.793 15.788C111.172 16.1888 111.37 16.7172 111.352 17.2633C111.335 17.8094 111.106 18.3203 110.705 18.699L82.2072 45.5278C81.8241 45.8845 81.3264 46.0827 80.7979 46.0827Z" fill="#E60088"/>
<path d="M70.4002 47.7078C70.0214 47.7078 69.6515 47.6021 69.3256 47.4083L44.6856 32.3691C44.2144 32.0828 43.8841 31.6292 43.7564 31.0919C43.6287 30.5547 43.7167 30.0042 44.003 29.5374C44.3817 28.9208 45.0379 28.5509 45.7646 28.5509C46.1433 28.5509 46.5132 28.6566 46.8391 28.8548L71.4747 43.894C72.448 44.4842 72.7519 45.7569 72.1617 46.7257C71.7786 47.3379 71.1224 47.7078 70.4002 47.7078Z" fill="#E60088"/>
<path d="M12.4268 57.5947C11.8896 57.5947 11.3787 57.3877 10.9868 57.0134C10.5948 56.6302 10.3702 56.115 10.3614 55.5645C10.357 55.014 10.5596 54.4943 10.9427 54.098L34.5609 29.775C34.9529 29.3699 35.4814 29.1497 36.0407 29.1497C36.5779 29.1497 37.0844 29.3566 37.4763 29.731C38.2911 30.5193 38.3131 31.8273 37.5248 32.642L13.9022 56.9649C13.519 57.3701 12.9773 57.5947 12.4268 57.5947Z" fill="#E60088"/>
<path d="M7.75922 67.8956C5.58368 67.7987 3.5887 66.8607 2.1266 65.2621C0.664494 63.6678 -0.0885771 61.5935 0.00830931 59.4224C0.100792 57.26 1.03883 55.2606 2.63745 53.7941C4.13919 52.4245 6.08132 51.6714 8.11153 51.6714C10.6438 51.7771 12.6432 52.7151 14.1053 54.3138C15.5674 55.908 16.3204 57.9823 16.2236 60.1534C16.1311 62.3158 15.193 64.3152 13.5944 65.7817C12.0971 67.1514 10.155 67.9088 8.12474 67.9088L7.75922 67.8956ZM8.11153 55.7891C7.11184 55.7891 6.16059 56.1634 5.42514 56.8372C4.63243 57.5551 4.17442 58.5372 4.12598 59.6074C4.08194 60.6731 4.45187 61.6948 5.16971 62.4832C5.89195 63.2715 6.86963 63.7339 7.93538 63.7779C7.93978 63.7779 7.94418 63.7779 7.94418 63.7779C10.2695 63.7779 12.0178 62.1 12.1103 59.9641C12.1587 58.8983 11.7844 57.8766 11.0666 57.0883C10.3443 56.2956 9.36665 55.8375 8.3009 55.7891L8.11153 55.5469V55.7891Z" fill="#E60088"/>
<path d="M39.9646 35.0512C37.7978 34.9543 35.7984 34.0162 34.3319 32.4176C32.8698 30.8145 32.1167 28.7403 32.218 26.5779C32.3105 24.4112 33.2441 22.4118 34.8428 20.9496C36.3445 19.58 38.2867 18.8225 40.3125 18.8225C42.8579 18.9282 44.8529 19.8618 46.315 21.4649C47.7772 23.0635 48.5302 25.1378 48.4333 27.3046C48.2396 31.6557 44.6768 35.0556 40.3257 35.0556L39.9646 35.0512ZM40.3213 22.9402C39.326 22.9402 38.3703 23.3146 37.6261 23.9884C36.8378 24.7106 36.3842 25.6927 36.3313 26.7585C36.2829 27.8242 36.6572 28.846 37.375 29.6343C38.0973 30.4226 39.075 30.885 40.1451 30.9335C40.1495 30.9335 40.1539 30.9335 40.1539 30.9335C42.4748 30.9335 44.2232 29.2555 44.3201 27.1196C44.3641 26.0538 43.9942 25.0321 43.2763 24.2438C42.5541 23.4555 41.572 22.9931 40.5062 22.9446L40.3213 22.7024V22.9402Z" fill="#E60088"/>
<path d="M75.9587 56.952C73.7919 56.8551 71.7926 55.9171 70.326 54.3184C68.8639 52.7154 68.1109 50.6411 68.2122 48.4788C68.3046 46.3121 69.2383 44.3127 70.8369 42.8505C72.3386 41.4809 74.2852 40.7278 76.3154 40.7278C78.8476 40.8335 80.847 41.7672 82.3091 43.3702C83.7712 44.9688 84.5243 47.0431 84.4274 49.2098C84.3261 51.381 83.3925 53.3804 81.7983 54.8381C80.2965 56.2077 78.3544 56.9608 76.3286 56.9608L75.9587 56.952ZM76.3154 44.8455C75.3201 44.8455 74.3644 45.2199 73.6202 45.8937C72.8319 46.6159 72.3783 47.598 72.3254 48.6682C72.2814 49.7339 72.6513 50.7556 73.3692 51.5439C74.0914 52.3323 75.0691 52.7947 76.1392 52.8431C76.148 52.8431 76.1524 52.8431 76.1613 52.8431C77.3371 52.8431 78.2795 52.4688 79.0194 51.7994C79.8077 51.0815 80.2613 50.0994 80.3141 49.0249C80.3582 47.9591 79.9883 46.9374 79.2704 46.1491C78.5482 45.3608 77.5661 44.8984 76.5004 44.8499L76.3154 44.6077V44.8455Z" fill="#E60088"/>
<path d="M113.458 20.4784C111.296 20.3815 109.296 19.4478 107.83 17.8448C106.368 16.2505 105.615 14.1762 105.711 12.005C105.804 9.84263 106.742 7.8432 108.341 6.37665C109.842 5.007 111.784 4.25391 113.815 4.25391C116.347 4.3596 118.346 5.29326 119.808 6.89633C121.271 8.49059 122.024 10.5649 121.927 12.7405C121.834 14.9029 120.896 16.9023 119.298 18.3688C117.8 19.7385 115.858 20.4916 113.828 20.4916L113.458 20.4784ZM113.819 8.37168C112.819 8.37168 111.864 8.74602 111.128 9.41984C110.336 10.1377 109.878 11.1198 109.829 12.1944C109.785 13.2602 110.155 14.2819 110.873 15.0702C111.591 15.8585 112.573 16.321 113.639 16.3694C113.647 16.3694 113.652 16.3694 113.661 16.3694C114.841 16.3694 115.783 15.9951 116.514 15.3301C117.307 14.6122 117.765 13.6257 117.813 12.5555C117.857 11.4897 117.488 10.468 116.77 9.67968C116.047 8.89136 115.07 8.42893 114.004 8.38049L113.819 8.14267V8.37168Z" fill="#E60088"/>
<path d="M57.7745 78.3591C36.1688 78.3591 18.5928 60.783 18.5928 39.1773C18.5928 17.5717 36.1688 0 57.7745 0C79.3802 0 96.9518 17.5761 96.9518 39.1818C96.9518 60.7874 79.3802 78.3591 57.7745 78.3591ZM57.7745 4.11767C38.4413 4.11767 22.7148 19.8485 22.7148 39.1773C22.7148 58.5106 38.4413 74.237 57.7745 74.237C77.1078 74.237 92.8342 58.5062 92.8342 39.1773C92.8386 19.8485 77.1078 4.11767 57.7745 4.11767Z" fill="#E60088"/>
<path d="M110.926 100C108.895 100 106.988 99.2117 105.557 97.7761L78.3144 70.5378C77.5085 69.7363 77.5085 68.4283 78.3144 67.6224C78.7019 67.2349 79.2216 67.0191 79.7721 67.0191C80.3226 67.0191 80.8423 67.2349 81.2298 67.6224L108.473 94.8651C109.129 95.5212 110.009 95.8868 110.943 95.8868C111.877 95.8868 112.758 95.5256 113.418 94.8651C114.123 94.1648 114.493 93.2929 114.493 92.346C114.493 91.4124 114.127 90.536 113.467 89.8754L87.4173 63.8218C86.6114 63.0203 86.6114 61.7123 87.4173 60.9108C87.8049 60.5189 88.3245 60.3075 88.8706 60.3075C89.4211 60.3075 89.9408 60.5189 90.3283 60.9108L116.382 86.96C117.822 88.4001 118.61 90.3114 118.61 92.3416C118.61 94.3718 117.818 96.2875 116.382 97.7276C114.907 99.1985 112.978 100 110.926 100Z" fill="#E60088"/>
</svg>
