<?xml version="1.0" encoding="utf-8"?>
<!-- Generator: Adobe Illustrator 25.0.1, SVG Export Plug-In . SVG Version: 6.00 Build 0)  -->
<svg version="1.1" id="Layer_1" xmlns="http://www.w3.org/2000/svg" xmlns:xlink="http://www.w3.org/1999/xlink" x="0px" y="0px"
	 viewBox="0 0 2248.6 1243" style="enable-background:new 0 0 2248.6 1243;" xml:space="preserve">
<style type="text/css">
	.st0{fill:#010101;}
	.st1{fill:#E60088;}
</style>
<g>
	<g>
		<g>
			<path class="st0" d="M1003.4,659.9c0,1.8-0.2,3.5-0.4,5.3h-43.5c1.3,6.7,5.6,10.2,12,10.2c4.7,0,8.6-2.1,10.6-5.5h20.1
				c-4.1,13.4-16,21.7-30.7,21.7c-18.3,0-31.8-13.4-31.8-31.2c0-17.9,13.4-31.1,31.8-31.1C990.3,629.3,1003.4,642.8,1003.4,659.9
				L1003.4,659.9z M959.8,654.1h23.7c-1.8-5.9-6-9-12.1-9C965.6,645.1,961.5,648.3,959.8,654.1z"/>
		</g>
		<g>
			<path class="st0" d="M1011.8,664.6v-33.4h20.2v32.5c0,6.2,3.3,9.8,8.7,9.8c5.4,0,8.6-3.7,8.6-9.8v-32.5h20.2v33.4
				c0,16.4-11.5,27.1-28.8,27.1C1023.4,691.7,1011.8,681,1011.8,664.6z"/>
		</g>
		<g>
			<path class="st0" d="M1104,691.7c-16,0-25.7-8.4-25.8-21.1h19.4c0,4.3,3,6.3,6.8,6.3c3,0,5.7-1.5,5.7-4.5c0-3.4-4.4-4.3-10.1-5.3
				c-9.1-1.5-21.1-4.2-21.1-18.4c0-11.7,10-19.3,25-19.3c14.9,0,24.6,7.9,24.8,19.8h-18.9c0-3.7-2.5-5.5-6.2-5.5
				c-3.2,0-5.4,1.6-5.4,4.3c0,3.3,4.5,4.1,10,5.1c9.2,1.6,21.5,3.6,21.5,18.4C1129.9,683.7,1119.5,691.7,1104,691.7L1104,691.7z"/>
		</g>
		<g>
			<path class="st0" d="M1178.2,672.1v17.7h-13.9c-12.9,0-20.8-7.9-20.8-20.9v-22.1h-10.7V642l26.2-27.9h4.1v17.1h14.7v15.5h-14.2
				v18.6c0,4.2,2.5,6.7,6.8,6.7h7.8V672.1z"/>
		</g>
		<g>
			<path class="st0" d="M1225.8,630.9v18.5h-7.8c-7.1,0-10.1,3.1-10.1,10.6v29.8h-20.2v-58.5h13.5l3.1,6.5c4.1-4.8,9.2-6.8,16.1-6.8
				L1225.8,630.9L1225.8,630.9z"/>
		</g>
		<g>
			<path class="st0" d="M1292.8,659.9c0,1.8-0.2,3.5-0.4,5.3h-43.5c1.3,6.7,5.6,10.2,12,10.2c4.7,0,8.6-2.1,10.6-5.5h20.1
				c-4.1,13.4-16,21.7-30.7,21.7c-18.3,0-31.8-13.4-31.8-31.2c0-17.9,13.4-31.1,31.8-31.1C1279.7,629.3,1292.8,642.8,1292.8,659.9
				L1292.8,659.9z M1249.2,654.1h23.7c-1.8-5.9-6-9-12.1-9C1254.9,645.1,1250.9,648.3,1249.2,654.1z"/>
		</g>
		<g>
			<path class="st0" d="M1362.3,659.9c0,1.8-0.2,3.5-0.4,5.3h-43.5c1.3,6.7,5.6,10.2,12,10.2c4.7,0,8.6-2.1,10.6-5.5h20.1
				c-4.1,13.4-16,21.7-30.7,21.7c-18.3,0-31.8-13.4-31.8-31.2c0-17.9,13.4-31.1,31.8-31.1C1349.2,629.3,1362.3,642.8,1362.3,659.9
				L1362.3,659.9z M1318.7,654.1h23.7c-1.8-5.9-6-9-12.1-9C1324.4,645.1,1320.4,648.3,1318.7,654.1z"/>
		</g>
		<g>
			<path class="st0" d="M1410,672.1v17.7h-13.9c-12.9,0-20.8-7.9-20.8-20.9v-22.1h-10.7V642l26.2-27.9h4.1v17.1h14.7v15.5h-14.2
				v18.6c0,4.2,2.5,6.7,6.8,6.7h7.8V672.1z"/>
		</g>
	</g>
	<path class="st1" d="M966.3,564.1c-0.4-0.5-0.8-1.2-1.4-2.2c-0.1-0.3-0.3-0.5-0.5-0.8c-0.1-0.1-0.2-0.3-0.2-0.4
		c-0.1-0.3-0.3-0.5-0.4-0.8c-0.6-1.2-1.2-2.5-1.9-3.9c-2.7-5.6-5.9-12.5-9.3-19.9c-2.5,1.1-5.1,2.2-7.6,3.4
		c-0.1-0.8-0.5-0.3-1.1,0.5c-3,1.3-6,2.6-9,4c-4.3,1.9-8.6,3.7-12.6,5.5c-5.9,2.5-11,4.6-13.8,5.6l-0.8,0.4
		c-5,1.9-10.9,4.7-14.6,7.6c-1.6,1.5-3.2,3.2-4.8,4.8c1.1,0.1,2.2,0.2,3.1,0.4c-2,0.8-4,1.5-4.5,2.4c-3.7,3.1-0.6,3.5,1.8,4.9
		c1.5,0.4,0.5,2.4,2.7,2.5c-1.3,0.5-2,0.8-3.3,1.3c0.2,0.9,3.9-2.1,3.5-0.4c-1.4,0.2-2.6,1.3-3.9,1.8c0.9,0.9,4.7-1.5,5-0.3
		c-0.6,0.6-4.3,0-4,1.5c0.1,0.3,1.4-0.2,2.1-0.5c-3.9,2.1-5.5,4.4-1.2,4.4c-1.3,0.5-3.4,0.7-4.6,1.4l0,0c0.7-0.2,2-0.4,2.6-0.7
		c-0.8,0.3-1.6,0.6-2.3,0.9c0.2,0.1,0.4,0.3,0.7,0.4c0.6-0.1,1.3-0.2,1.9-0.4c-0.5,0.2-1,0.4-1.6,0.6c0.6,0.3,1.2,0.5,1.9,0.8
		c2.2,0.1,4.5,0.7,5.5,0.3c8.2-2.7,16.4-5.6,24.4-8.9c-0.2-0.5-0.9-0.9-0.3-1.4c1.9-1.4,4.3-0.3,6.1-1.7c-0.1-0.3-0.1-0.6-0.2-0.9
		c1.8-0.3,3.6-0.6,5.5-0.9c0.6-0.3,1.2-0.6,1.8-0.9c-0.1,0.9-0.4,2-0.6,3.3c-1.9,6.4-3.9,12.9-5.8,19.3c-2.7,9.1-5.5,18.1-8.3,27.2
		c-2.9,9.1-5.8,18.1-9,27.1c-0.1,0.5-0.3,1.1-0.5,1.8c-0.1,0.4-0.2,0.7-0.3,1.2c-0.1,0.2-0.1,0.4-0.2,0.6l0,0
		c0.1,0.1,0.1,0.3,0.1,0.6c0,0.2,0,0.6-0.1,0.9c0,0.2-0.1,0.4-0.1,0.6c-0.1,0.2-0.1,0.5-0.3,0.6c-0.2,0-0.3-0.1-0.5-0.2
		c-0.1-0.1-0.3-0.3-0.4-0.5c-0.3-0.4-0.6-0.8-0.8-1.3l-0.1-0.2l-0.7-1.4l-1.5-3c-1-2.1-2-4.1-3-6.2c-1-2.1-2-4.1-3-6.2
		c-1.3-2.7-2.6-5.3-3.9-8c-1.8-3.7-3.6-7.3-5.5-10.6s-3.8-6.5-5.7-8.9c-2-2.4-3.9-4.1-5.8-5.2c-0.9-0.5-1.8-1-2.7-1.4
		c-0.9-0.3-1.8-0.5-2.7-0.7c-0.5-0.1-0.9-0.2-1.5-0.3c-0.3,0-0.5-0.1-0.8-0.1h-0.2H867l0,0c0,0,0,0.2,0,0.1h-0.1l-0.4,0.1
		c-1.1,0.2-1.9,0.4-2.7,0.6c-0.2,0.1-0.4,0.1-0.6,0.2c-0.2,0.1-0.4,0.2-0.6,0.2c-0.4,0.1-0.7,0.4-1.1,0.5c-0.3,0.2-0.7,0.4-1,0.6
		c-0.3,0.2-0.7,0.5-1,0.7c-2.6,1.9-4.7,4.6-6.3,7.3c-0.3,0.5-0.5,1-0.8,1.5s-0.5,1-0.8,1.6c-2.4,4.8-4.5,10.7-6.5,16.6
		c-0.2,0.7-0.5,1.5-0.7,2.2l-0.7,2l-0.5,1.5l-0.4,1.2c-0.5,1.7-1,3.3-1.5,5c-1.8,6.6-3.3,13-4.2,18.3c-0.6,4.9-1.1,10-1.5,15
		c1.1-2.1,2.2-4,3.2-5.6c-1.4,4.8-2.8,9.7-2.7,11.7c-1.4,10.7,1.7,5.3,4.9,1.9c1.7-2.6,2.1,1.6,4.2-2.6c-0.9,3.2-1.4,4.8-2.3,8
		c0.8,0.6,2.2-10.1,3.1-7.4c-1.2,3-1.6,6.6-2.5,9.8c1.5-0.8,3.4-11,4.5-10.2c-0.2,1.8-4,8.6-2.7,9.6c0.3,0.2,1.2-3,1.6-4.6
		c-2.2,10-2.2,15.9,1.8,7.2c-0.9,3.1-2.7,7.4-3.3,10.8l0,0c0.5-1.6,1.5-4.4,1.9-5.9c-0.5,1.9-1,3.7-1.5,5.6c0.3-0.2,0.6-0.5,0.9-0.8
		c0.5-1.4,1-2.7,1.5-4.2c-0.3,1.2-0.7,2.5-1,3.7c0.7-0.8,1.5-1.8,2.2-2.8c2.1-4.2,4.6-8.1,5.3-10.5c2.9-9.6,5.9-19.2,9-28.7
		c1.5-4.8,3.1-9.5,4.6-14.2l0.6-1.7l0.3-0.9l0.1-0.2v-0.1c0.2-0.4,0.1-0.3,0.1-0.3l0.1-0.1c-0.4-0.6-0.8-1.1-0.9-1.6
		c-0.1-0.6,0.3-0.5,0.5-0.1c0.3,0.3,0.4,0.9,0.4,0.3c-0.1-0.6-0.1-1.2-0.2-1.9c0.1,0.1,0.2,0.3,0.3,0.6s0.1,0.6,0.2,0.9
		c0.1,0.6,0.1,1,0,1.4c0.1,0,0.2,0,0.3,0c0,0,0.1,0,0.1,0.1h0.1l0,0l0,0c0,0,0,0,0.1,0.1l0.1,0.2c0.9,1.7,1.8,3.5,2.7,5.2
		c0.2-0.3,0.5-0.5,0.9,0.1c1.6,2.9,3.3,7.1,5.3,11.5c0.4,0.6,0.7,1.2,1.1,1.8c0.4,0.4,0.8,0.4,1,0.4c0.7,1.6,1.4,3.1,2.1,4.5
		c0.8,1.6,1.5,3.1,2.2,4.6c1.7,2.9,3.4,5.7,5.1,8.2c1.8,2.6,3.6,4.8,5.5,6.6c1.9,1.7,3.8,3,5.6,3.8c0.9,0.4,1.9,0.8,2.9,1
		c1,0.1,2.1,0.3,3.5,0.4c0.7-0.1,1.2-0.4,1.7-0.6c0.5-0.2,0.9-0.4,1.3-0.7c0.8-0.5,1.6-1.1,2.4-1.9c1.6-1.4,3.1-3.3,4.6-5.8
		c1.4-2.4,2.7-5.4,3.9-8.5s2.2-6.2,3.2-9.3c0.5-1.6,1-3.1,1.5-4.7c0.3-0.9,0.4-1.3,0.5-1.8l0.4-1.5c0.5-2.1,1.1-4.1,1.6-6.2
		c1.1-4.2,2.1-8.4,3.2-12.6c0.6-3.4,1.1-6.7,1.8-10c0.1,0,0.1,0,0.2,0c0.3-0.3,0.5-0.7,0.7-1.1c-0.1,0.3-0.2,0.7-0.4,1
		c0.5-0.1,1-0.3,1.5-0.5c1.2-0.9,2.7-1.7,3-2.4c2.2-5,4.2-10.2,5.9-15.4c-0.5-0.2-1,0-1.1-0.5c0-1.5,1.9-2.1,1.9-3.6
		c-0.2-0.1-0.5-0.2-0.7-0.3c0.6-1,1.4-1.9,2.1-2.9c0.5-2.1,1-4.2,1.3-6.3c-0.3,0-0.6-0.1-0.6-0.3c0.1-0.9,0.7-2,1.1-3.2
		c0-0.2,0-0.4,0-0.6c-0.1-0.2-0.4-0.3-0.5-0.4c0.2-0.5,0.4-1,0.6-1.4c0.2-4.9,0.4-10,0.5-15.3c0.3,0.5,0.7,1,1,1.5
		c1.7,1.8,3.4,3.6,4.6,5.4c1.6,2.9,2.8,7,4,10c2.8-1.7,7.3,4.8,9.7,2.1c0.8,2,2,5,2.9,4.8c2.7-0.6,6.3-0.4,10,4.2
		c1.2,1.9,1.6,5.5,2.4,6c1.3,0.8,0.6-3.4,1.9-2.6C980.4,593.5,973,579.4,966.3,564.1z"/>
</g>
<g>
	<path class="st0" d="M1017.2,748.1c-1.5,1.7-3.7,2.5-6.6,2.5c-2.5,0-4.6-0.7-6.4-2.1c-1.8-1.4-3.1-3.2-3.9-5.3
		c-0.8-2.1-1.2-4.4-1.2-6.9s0.4-4.8,1.3-6.9c0.9-2.1,2.2-3.8,3.9-5.2c1.8-1.4,3.8-2.1,6.2-2.1c2.9,0,5.1,0.8,6.6,2.4l1.2-2.3h1.4v9
		h-1.8c0-2.4-0.7-4.2-2-5.5s-3.1-1.9-5.3-1.9c-2.5,0-4.5,1.1-6.1,3.2c-1.6,2.1-2.3,5.2-2.3,9.4c0,4.1,0.8,7.2,2.4,9.4
		c1.6,2.2,3.7,3.2,6.3,3.2c2,0,3.7-0.7,5.1-2c1.3-1.4,2-3.2,2-5.5h1.8v9.2h-1.4L1017.2,748.1z"/>
	<path class="st0" d="M1039.7,747.8c-1.7,1.9-3.9,2.8-6.5,2.8s-4.8-0.9-6.5-2.8c-1.7-1.9-2.6-4.4-2.6-7.5s0.9-5.6,2.6-7.5
		s3.9-2.8,6.5-2.8s4.8,0.9,6.5,2.8c1.7,1.9,2.6,4.4,2.6,7.5C1042.3,743.4,1041.4,745.9,1039.7,747.8z M1037.7,733.9
		c-1.1-1.6-2.6-2.4-4.5-2.4s-3.4,0.8-4.5,2.4c-1.1,1.6-1.6,3.7-1.6,6.4c0,2.6,0.5,4.8,1.6,6.4c1.1,1.6,2.6,2.4,4.5,2.4
		s3.4-0.8,4.5-2.4c1.1-1.6,1.6-3.8,1.6-6.4C1039.3,737.6,1038.8,735.5,1037.7,733.9z"/>
	<path class="st0" d="M1045.4,750.2v-1.5h3v-27h-3v-1.5c2.1,0,3.5,0,4.1-0.1c0.6,0,1.1-0.2,1.3-0.3l0.5,0.3v28.6h3v1.5H1045.4z"/>
	<path class="st0" d="M1056.7,750.2v-1.5h3v-27h-3v-1.5c2.1,0,3.5,0,4.1-0.1c0.6,0,1.1-0.2,1.3-0.3l0.5,0.3v28.6h3v1.5H1056.7z"/>
	<path class="st0" d="M1078.1,750.6c-2.7,0-5-0.9-6.7-2.8c-1.7-1.9-2.6-4.4-2.6-7.7c0-3.1,0.8-5.5,2.5-7.4s3.8-2.8,6.4-2.8
		c2.7,0,4.8,0.9,6.2,2.6c1.4,1.7,2.1,3.9,2.1,6.4v1.2h-14.3v0.5c0,2.6,0.6,4.7,1.7,6.2s2.7,2.3,4.9,2.3c3.2,0,5.3-1.6,6.3-4.8
		l1.2,0.4c-0.5,1.9-1.4,3.3-2.7,4.3C1081.7,750.1,1080.1,750.6,1078.1,750.6z M1077.6,731.3c-1.8,0-3.2,0.7-4.2,2.1
		c-1,1.4-1.6,3.2-1.7,5.5h11.3c0-2.2-0.5-4-1.3-5.5C1080.8,732,1079.5,731.3,1077.6,731.3z"/>
	<path class="st0" d="M1106,744.5c-0.5,2.1-1.4,3.6-2.8,4.6c-1.3,1-2.9,1.5-4.7,1.5c-2.6,0-4.7-0.9-6.4-2.8
		c-1.7-1.8-2.6-4.3-2.6-7.5c0-3.3,0.9-5.8,2.7-7.6c1.8-1.8,3.9-2.7,6.5-2.7c2,0,3.6,0.5,4.8,1.5c1.3,1,1.9,2.3,1.9,3.7
		c0,0.6-0.2,1.1-0.5,1.5s-0.7,0.5-1.3,0.5c-0.6,0-1-0.2-1.4-0.5c-0.3-0.3-0.5-0.7-0.5-1.2s0.1-0.9,0.4-1.3c0.3-0.4,0.7-0.6,1.3-0.6
		c-0.8-1.5-2.3-2.3-4.5-2.3c-2,0-3.6,0.8-4.8,2.3c-1.2,1.6-1.8,3.8-1.8,6.6s0.6,5,1.7,6.5c1.2,1.5,2.7,2.3,4.5,2.3
		c2.9,0,4.9-1.7,6-5L1106,744.5z"/>
	<path class="st0" d="M1117,750.6c-3.6,0-5.4-2.1-5.4-6.2v-12.6h-3.6v-1.2h0.8c1.5,0,2.6-0.5,3.1-1.5s0.8-2.5,0.8-4.5v-1.5h1.6v7.2
		h7.4v1.5h-7.3V744c0,3.4,1.1,5.1,3.2,5.1c2,0,3-1.9,3-5.6h1.5c0,2.3-0.4,4.1-1.2,5.3C1120,750,1118.7,750.6,1117,750.6z"/>
	<path class="st0" d="M1153.1,750.3l-5.1-16.7l-5.1,16.7h-2.4l-5.2-18.4h-2.2v-1.5h7.5v1.5h-2.6l4.4,15.4l5.1-17h1.8l5.3,17.2
		l4.2-15.6h-2.4v-1.5h6.1v1.5h-2.1l-5,18.4L1153.1,750.3L1153.1,750.3z"/>
	<path class="st0" d="M1170.4,730.3v18.4h3v1.5h-8.9v-1.5h3v-16.8h-3v-1.5c2,0,3.3,0,3.9-0.1s1.1-0.2,1.4-0.3L1170.4,730.3z
		 M1170.3,722.4c0.3,0.4,0.5,0.9,0.5,1.3c0,0.5-0.2,0.9-0.5,1.3c-0.3,0.4-0.8,0.7-1.5,0.7s-1.2-0.2-1.5-0.6
		c-0.3-0.4-0.5-0.9-0.5-1.4s0.2-0.9,0.5-1.4c0.3-0.4,0.8-0.6,1.5-0.6S1170,721.9,1170.3,722.4z"/>
	<path class="st0" d="M1179,748.1l-0.9,2.5h-1.1v-7.1h1.5c0.1,1.7,0.8,3,2,4.1s2.8,1.6,4.8,1.6c2.8,0,4.2-1.1,4.2-3.4
		c0-1.1-0.4-2.1-1.3-2.7c-0.9-0.7-2.4-1.3-4.5-1.8c-2.4-0.6-4.1-1.3-5.1-2.1c-1-0.9-1.5-2.1-1.5-3.6c0-1.7,0.6-3,1.9-4
		c1.2-1,2.8-1.5,4.7-1.5c2.6,0,4.4,0.7,5.6,2.1l0.6-2.1h1.2v6.6h-1.5c-0.3-3.4-2.3-5.1-5.9-5.1c-1.3,0-2.3,0.3-2.9,1
		c-0.7,0.6-1,1.4-1,2.4c0,1.1,0.4,2,1.2,2.6s2.3,1.2,4.6,1.7c2.2,0.5,3.9,1.2,5,2.1s1.7,2.2,1.7,3.9s-0.6,3-1.7,4s-2.7,1.5-4.8,1.5
		C1182.7,750.6,1180.5,749.8,1179,748.1z"/>
	<path class="st0" d="M1205.2,750.6c-2.7,0-5-0.9-6.7-2.8c-1.7-1.9-2.6-4.4-2.6-7.7c0-3.1,0.8-5.5,2.5-7.4s3.8-2.8,6.4-2.8
		c2.7,0,4.8,0.9,6.2,2.6c1.4,1.7,2.1,3.9,2.1,6.4v1.2h-14.3v0.5c0,2.6,0.6,4.7,1.7,6.2s2.7,2.3,4.9,2.3c3.2,0,5.3-1.6,6.3-4.8
		l1.2,0.4c-0.5,1.9-1.4,3.3-2.7,4.3C1208.9,750.1,1207.2,750.6,1205.2,750.6z M1204.8,731.3c-1.8,0-3.2,0.7-4.2,2.1
		c-1,1.4-1.6,3.2-1.7,5.5h11.3c0-2.2-0.5-4-1.3-5.5C1208,732,1206.6,731.3,1204.8,731.3z"/>
	<path class="st0" d="M1216.1,750.2v-1.5h3v-27h-3v-1.5c2.1,0,3.5,0,4.1-0.1c0.6,0,1.1-0.2,1.3-0.3l0.5,0.3v28.6h3v1.5H1216.1z"/>
	<path class="st0" d="M1230.8,760.6c-1.3,0-2.3-0.4-3.1-1.1s-1.2-1.7-1.2-2.7c0-0.6,0.2-1.2,0.5-1.5c0.4-0.4,0.8-0.6,1.3-0.6
		s0.9,0.1,1.2,0.4c0.3,0.3,0.5,0.7,0.5,1.2c0,1.1-0.5,1.7-1.4,1.8c0.4,0.7,1.1,1,2,1c1.1,0,1.9-0.5,2.5-1.4c0.6-1,1.6-3.2,2.9-6.7
		c0.2-0.4,0.3-0.8,0.4-1l-7.8-18.2h-2.5v-1.4h8v1.4h-2.5l6.2,14.5l5.5-14.5h-2.6v-1.4h6.7v1.4h-2.4l-7.1,19c-1.5,4-2.7,6.6-3.6,7.9
		C1233.6,760,1232.4,760.6,1230.8,760.6z"/>
	<path class="st0" d="M1251.6,748.6c0,0.5-0.2,0.9-0.5,1.4c-0.3,0.4-0.9,0.7-1.6,0.7s-1.2-0.2-1.6-0.7s-0.5-0.9-0.5-1.4
		s0.2-1,0.5-1.4c0.4-0.5,0.9-0.7,1.6-0.7s1.2,0.2,1.6,0.7C1251.4,747.6,1251.6,748.1,1251.6,748.6z"/>
</g>
</svg>
