<svg width="152" height="140" viewBox="0 0 152 140" fill="none" xmlns="http://www.w3.org/2000/svg">
<g filter="url(#filter0_d)">
<path d="M95.9345 65.2668C95.6437 65.2668 95.3528 65.2133 95.0808 65.1018C94.5366 64.8834 94.1191 64.4821 93.8986 63.9649C93.6828 63.4477 93.6828 62.8815 93.9127 62.3687C94.3489 61.3789 94.5741 60.3356 94.5741 59.2611C94.5741 54.8649 90.8072 51.2846 86.1818 51.2846C81.5564 51.2846 77.7895 54.8649 77.7895 59.2611C77.7895 60.4114 76.8043 61.3477 75.594 61.3477C74.3884 61.3477 73.4033 60.4159 73.4033 59.2611C73.4033 52.5643 79.1358 47.1158 86.1865 47.1158C93.2325 47.1158 98.965 52.5643 98.965 59.2611C98.965 60.9018 98.6319 62.4936 97.9611 63.9917C97.6139 64.7675 96.8211 65.2668 95.9345 65.2668Z" fill="#E60088"/>
<path d="M86.1779 131.023C79.1319 131.023 73.3994 125.575 73.3994 118.878C73.3994 117.728 74.3845 116.796 75.5901 116.796C76.8004 116.796 77.7855 117.728 77.7855 118.878C77.7855 123.279 81.5478 126.855 86.1732 126.855C90.7985 126.855 94.5655 123.274 94.5655 118.878C94.5655 117.799 94.345 116.756 93.9087 115.775C93.4349 114.718 93.9556 113.492 95.0721 113.042C95.3489 112.93 95.635 112.877 95.9306 112.877C96.8125 112.877 97.6053 113.376 97.9524 114.152C98.6232 115.646 98.9563 117.237 98.9563 118.883C98.961 125.575 93.2285 131.023 86.1779 131.023Z" fill="#E60088"/>
<path d="M97.1647 122.19C96.02 122.19 95.0631 121.339 94.9786 120.255C94.9364 119.703 95.1193 119.163 95.504 118.739C95.8887 118.316 96.4188 118.066 97.0052 118.026C102.161 117.669 106.861 115.422 110.239 111.704C113.621 107.981 115.277 103.232 114.897 98.3411C114.676 95.3627 113.729 92.576 112.096 90.0524C111.468 89.0715 111.787 87.783 112.814 87.1811C113.161 86.976 113.56 86.8734 113.963 86.8734C114.733 86.8734 115.432 87.2435 115.84 87.8632C117.81 90.913 118.997 94.4264 119.278 98.0335C119.743 104.044 117.712 109.871 113.565 114.432C109.418 118.994 103.648 121.745 97.3242 122.186L97.1647 122.19Z" fill="#E60088"/>
<path d="M108.953 76.574C108.629 76.574 108.305 76.5071 108 76.3689C106.912 75.8696 106.452 74.6212 106.978 73.5823C108.202 71.1613 108.362 68.4281 107.428 65.8867C106.495 63.3453 104.571 61.3077 102.024 60.1396C100.574 59.4752 99.0358 59.1408 97.4408 59.1408C97.4361 59.1408 97.4314 59.1408 97.4267 59.1408C95.8928 59.1408 94.8936 58.2179 94.8654 57.1255C94.8466 56.5682 95.0577 56.0376 95.4565 55.6364C95.8599 55.2306 96.4041 54.9988 96.9905 54.981C97.0092 54.981 97.028 54.981 97.0468 54.981C99.6972 54.981 101.925 55.4669 103.929 56.3854C111.378 59.7873 114.521 68.3167 110.937 75.3925C110.571 76.1103 109.792 76.574 108.953 76.574Z" fill="#E60088"/>
<path d="M110.478 95.7017C109.891 95.7017 109.342 95.4877 108.93 95.0909C108.071 94.2794 108.071 92.9552 108.93 92.1393C111.843 89.3704 113.447 85.6876 113.447 81.7684C113.447 77.8537 111.843 74.1664 108.93 71.3976C108.517 71.0052 108.282 70.4791 108.282 69.9262C108.282 69.3689 108.512 68.8427 108.93 68.4504C109.342 68.0536 109.896 67.8395 110.482 67.8395C111.064 67.8395 111.618 68.0536 112.03 68.4504C115.774 72.0039 117.838 76.7346 117.838 81.7684C117.838 86.8022 115.774 91.5329 112.03 95.0864C111.613 95.4833 111.064 95.7017 110.478 95.7017Z" fill="#E60088"/>
<path d="M75.5901 121.112C74.3845 121.112 73.3994 120.18 73.3994 119.025V59.2344C73.3994 58.0841 74.3845 57.1478 75.5901 57.1478C76.8004 57.1478 77.7855 58.0796 77.7855 59.2344V119.025C77.7902 120.18 76.8051 121.112 75.5901 121.112Z" fill="#E60088"/>
<path d="M90.0858 78.7768C88.9599 78.7768 88.0217 77.9698 87.9091 76.9042C87.3603 71.8615 84.6395 71.1748 84.6066 71.1704C83.448 70.8895 82.7209 69.7748 82.9742 68.6825C83.204 67.7194 84.0719 67.0506 85.0851 67.0506C85.7466 67.1353 91.3852 68.3124 92.2671 76.4806C92.3891 77.622 91.5072 78.6475 90.3063 78.7679L90.0858 78.7768Z" fill="#E60088"/>
<path d="M100.72 106.238C99.5242 106.117 98.6422 105.092 98.7642 103.951C98.8815 102.885 99.8197 102.082 100.946 102.082H100.95C101.161 102.082 102.55 101.98 103.666 99.4518C104.009 98.676 104.811 98.1722 105.693 98.1722C105.988 98.1722 106.275 98.2257 106.547 98.3371C107.081 98.5512 107.504 98.9569 107.724 99.4696C107.945 99.9868 107.945 100.553 107.715 101.07C106.026 104.896 103.197 106.256 101.114 106.256L100.72 106.238Z" fill="#E60088"/>
<path d="M98.3047 91.4705C97.5166 91.4705 96.7895 91.0692 96.4001 90.4182C96.1139 89.9367 96.0342 89.3749 96.189 88.8354C96.3438 88.3004 96.705 87.8501 97.2163 87.5736C101.223 85.3978 99.5853 82.2589 99.3883 81.9067C98.8207 80.8857 99.2335 79.6194 100.298 79.0844C100.613 78.9239 100.969 78.8392 101.326 78.8392C102.137 78.8392 102.883 79.2627 103.263 79.9449C104.619 82.3704 105.552 87.8411 99.393 91.194C99.0599 91.3813 98.694 91.4705 98.3047 91.4705Z" fill="#E60088"/>
<path d="M89.8371 108.356C89.6166 108.356 89.3961 108.324 89.1897 108.266C86.4266 107.459 81.6933 104.222 83.565 97.7082C83.8231 96.8031 84.6862 96.1699 85.6714 96.1699C85.8684 96.1699 86.0607 96.1967 86.2531 96.2457C86.8207 96.3929 87.2945 96.7406 87.5853 97.2222C87.8762 97.7082 87.9512 98.27 87.7917 98.805C86.5908 103.005 90.0763 104.16 90.4751 104.276C91.6338 104.615 92.2812 105.783 91.9293 106.88C91.6525 107.749 90.7894 108.356 89.8371 108.356Z" fill="#E60088"/>
<path d="M65.007 131.023C57.961 131.023 52.2285 125.575 52.2285 118.878C52.2285 117.233 52.5616 115.641 53.2324 114.147C53.5795 113.376 54.3723 112.872 55.2543 112.872C55.5498 112.872 55.8359 112.93 56.1127 113.037C57.2245 113.487 57.7499 114.713 57.2761 115.77C56.8398 116.755 56.6147 117.799 56.6147 118.873C56.6147 123.274 60.3816 126.85 65.007 126.85C69.6324 126.85 73.3993 123.27 73.3993 118.873C73.3993 117.723 74.3844 116.791 75.59 116.791C76.8003 116.791 77.7855 117.723 77.7855 118.873C77.7901 125.575 72.053 131.023 65.007 131.023Z" fill="#E60088"/>
<path d="M55.2543 65.2668C54.3723 65.2668 53.5795 64.7675 53.2324 63.9917C52.5616 62.498 52.2285 60.9018 52.2285 59.2611C52.2285 52.5643 57.961 47.1158 65.007 47.1158C72.0576 47.1158 77.7901 52.5643 77.7901 59.2611C77.7901 60.4114 76.805 61.3477 75.5947 61.3477C74.3891 61.3477 73.404 60.4159 73.404 59.2611C73.404 54.8649 69.637 51.2846 65.0117 51.2846C60.3863 51.2846 56.6193 54.8649 56.6193 59.2611C56.6193 60.3311 56.8398 61.3789 57.2808 62.3687C57.7546 63.4254 57.2339 64.6515 56.1174 65.1018C55.8312 65.2133 55.5451 65.2668 55.2543 65.2668Z" fill="#E60088"/>
<path d="M37.2221 91.2654C36.4621 91.2654 35.7444 90.8864 35.3504 90.2711C33.3754 87.2169 32.1886 83.7035 31.9118 80.1054C31.4474 74.0951 33.4786 68.2676 37.6255 63.7109C41.7724 59.1497 47.5424 56.3942 53.866 55.9573C53.8707 55.9573 53.8754 55.9573 53.8801 55.9573C55.1701 55.9573 56.1318 56.8044 56.2162 57.8834C56.2584 58.4407 56.0755 58.9802 55.6908 59.4038C55.3061 59.8229 54.7761 60.0771 54.1944 60.1172C49.0342 60.4739 44.3337 62.7211 40.9515 66.4396C37.5692 70.1581 35.9133 74.9066 36.2886 79.8066C36.5184 82.7806 37.4613 85.5717 39.0985 88.0908C39.4034 88.5679 39.4973 89.1253 39.3612 89.6692C39.2299 90.2132 38.8733 90.6724 38.3761 90.9622C38.0243 91.1629 37.6255 91.2654 37.2221 91.2654Z" fill="#E60088"/>
<path d="M53.7577 123.168C51.5247 123.168 49.2871 122.682 47.2652 121.754C43.6531 120.104 40.9416 117.215 39.6187 113.63C38.2959 110.041 38.521 106.175 40.252 102.747C40.6179 102.029 41.3967 101.565 42.2317 101.565C42.5601 101.565 42.8837 101.632 43.184 101.77C44.2723 102.269 44.732 103.518 44.2066 104.552C42.9822 106.978 42.8181 109.716 43.7516 112.248C44.6898 114.785 46.6084 116.827 49.1604 117.995C50.6052 118.66 52.1439 118.994 53.7436 118.994C53.7483 118.994 53.753 118.994 53.7577 118.994C55.3104 118.994 56.2908 119.899 56.319 121.009C56.3377 121.562 56.1266 122.097 55.7279 122.499C55.3245 122.904 54.7803 123.136 54.1939 123.154L53.7577 123.168Z" fill="#E60088"/>
<path d="M40.7071 110.299C40.1254 110.299 39.5719 110.085 39.1591 109.689C35.4156 106.135 33.3516 101.404 33.3516 96.3706C33.3516 91.3368 35.4156 86.6062 39.1591 83.0527C39.5719 82.6558 40.1254 82.4418 40.7071 82.4418C41.2935 82.4418 41.847 82.6558 42.2598 83.0527C43.1183 83.8641 43.1183 85.1884 42.2598 85.9998C39.3467 88.7731 37.7424 92.4559 37.7424 96.3706C37.7424 100.285 39.3467 103.973 42.2598 106.741C43.1183 107.553 43.1183 108.877 42.2598 109.689C41.847 110.085 41.2935 110.299 40.7071 110.299Z" fill="#E60088"/>
<path d="M75.5901 120.991C74.3845 120.991 73.3994 120.06 73.3994 118.905V59.114C73.3994 57.9637 74.3845 57.0273 75.5901 57.0273C76.8004 57.0273 77.7856 57.9592 77.7856 59.114V118.905C77.7903 120.06 76.8051 120.991 75.5901 120.991Z" fill="#E60088"/>
<path d="M64.1306 76.0611C63.3191 76.0611 62.5732 75.642 62.1932 74.9598C60.936 72.7171 60.6733 70.1445 61.4474 67.7234C62.2261 65.2979 63.9477 63.3004 66.3073 62.1055C66.6216 61.9449 66.9781 61.8602 67.3346 61.8602C68.1462 61.8602 68.892 62.2838 69.272 62.966C69.5488 63.4564 69.6051 64.0182 69.4409 64.5488C69.2673 65.0839 68.8874 65.5208 68.3713 65.7839C67.0485 66.4571 66.0821 67.5763 65.6458 68.9362C65.2096 70.3005 65.355 71.7407 66.0586 72.9936C66.631 74.0101 66.2228 75.2764 65.158 75.8114C64.8484 75.9764 64.4918 76.0611 64.1306 76.0611Z" fill="#E60088"/>
<path d="M62.8118 98.4575C61.9955 98.4575 61.2496 98.0339 60.8697 97.3517C59.5139 94.9261 58.5804 89.4552 64.7445 86.1022C65.0729 85.9239 65.4482 85.8303 65.8282 85.8303C66.6163 85.8303 67.3434 86.2315 67.7327 86.8781C68.0236 87.3641 68.1033 87.9259 67.9438 88.4609C67.789 88.996 67.4278 89.4463 66.9165 89.7228C62.9103 91.9031 64.5475 95.0421 64.7445 95.3898C65.3121 96.4064 64.904 97.6727 63.8344 98.2122C63.5154 98.3728 63.1589 98.4575 62.8118 98.4575Z" fill="#E60088"/>
<path d="M52.0269 87.0207C51.8346 87.0207 51.6376 86.9984 51.4499 86.9493C50.2818 86.6461 49.5876 85.4958 49.9065 84.3901C51.1122 80.1857 47.6267 79.0354 47.2279 78.915C46.0739 78.5806 45.4219 77.4124 45.769 76.3112C46.0552 75.4284 46.8949 74.8354 47.8659 74.8354C48.0817 74.8354 48.2975 74.8666 48.5133 74.9246C51.2763 75.7316 56.0049 78.9729 54.1379 85.4825C53.8799 86.3875 53.012 87.0207 52.0269 87.0207Z" fill="#E60088"/>
<path d="M59.1762 108.69C58.177 108.69 57.2998 108.048 57.0465 107.125C56.8541 106.407 55.1325 105.654 53.9832 105.422C52.7963 105.19 52.0317 104.084 52.2803 102.961C52.4867 101.993 53.3921 101.293 54.4288 101.293C55.414 101.445 60.3255 102.497 61.306 106.082C61.6015 107.196 60.8978 108.338 59.7251 108.623L59.1762 108.69Z" fill="#E60088"/>
<path d="M75.5901 15.6054C74.3845 15.6054 73.3994 14.6735 73.3994 13.5232V2.0822C73.3994 0.931863 74.3845 0 75.5901 0C76.8004 0 77.7856 0.931863 77.7856 2.0822V13.5232C77.7903 14.6735 76.8051 15.6054 75.5901 15.6054Z" fill="#E60088"/>
<path d="M46.9138 22.9128C46.1304 22.9128 45.4032 22.516 45.0139 21.8695L38.9999 11.9625C38.7044 11.4765 38.6247 10.9147 38.7795 10.3752C38.9343 9.84016 39.2955 9.38984 39.8021 9.11341C40.1305 8.93061 40.5105 8.83698 40.8951 8.83698C41.6785 8.83698 42.4057 9.23379 42.7903 9.88029L48.809 19.7873C49.1045 20.2688 49.1842 20.8306 49.0294 21.3701C48.8746 21.9096 48.5134 22.3599 48.0115 22.6363C47.6784 22.8147 47.2984 22.9128 46.9138 22.9128Z" fill="#E60088"/>
<path d="M25.912 42.8699C25.5273 42.8699 25.1567 42.7807 24.8237 42.5934L14.3955 36.8729C13.3494 36.2978 12.9882 35.0181 13.5933 34.0239C13.9827 33.3818 14.7098 32.9805 15.4932 32.9805C15.8778 32.9805 16.2578 33.0786 16.5909 33.257L27.0144 38.9774C28.0605 39.5571 28.417 40.8322 27.8119 41.8265C27.4225 42.473 26.6954 42.8699 25.912 42.8699Z" fill="#E60088"/>
<path d="M6.19072 70.1305C4.98512 70.1305 4 69.1986 4 68.0483C4 66.8979 4.98512 65.9615 6.19072 65.9615H18.228C19.4336 65.9615 20.4187 66.8934 20.4187 68.0483C20.4187 69.1986 19.4336 70.1305 18.228 70.1305H6.19072Z" fill="#E60088"/>
<path d="M15.493 103.116C14.7096 103.116 13.9825 102.714 13.5931 102.072C12.9927 101.074 13.3539 99.7986 14.3953 99.2234L24.8188 93.503C25.1519 93.3202 25.5318 93.2266 25.9118 93.2266C26.6952 93.2266 27.4223 93.6278 27.8117 94.2699C28.4168 95.2641 28.0603 96.5393 27.0142 97.1189L16.5907 102.839C16.2576 103.018 15.8777 103.116 15.493 103.116Z" fill="#E60088"/>
<path d="M135.696 103.116C135.312 103.116 134.932 103.018 134.599 102.839L124.175 97.1189C123.669 96.8425 123.307 96.3922 123.157 95.8527C123.007 95.3132 123.082 94.7514 123.378 94.2699C123.767 93.6278 124.494 93.2266 125.278 93.2266C125.658 93.2266 126.038 93.3247 126.371 93.503L136.794 99.2234C137.301 99.4998 137.662 99.9502 137.812 100.49C137.967 101.029 137.887 101.591 137.592 102.072C137.207 102.714 136.48 103.116 135.696 103.116Z" fill="#E60088"/>
<path d="M132.962 70.1305C131.752 70.1305 130.767 69.1986 130.767 68.0483C130.767 66.8979 131.752 65.9615 132.962 65.9615H144.995C146.2 65.9615 147.185 66.8934 147.185 68.0483C147.185 69.1986 146.2 70.1305 144.995 70.1305H132.962Z" fill="#E60088"/>
<path d="M125.273 42.8701C124.494 42.8701 123.767 42.4733 123.378 41.8268C123.082 41.3453 123.003 40.7835 123.157 40.244C123.312 39.7045 123.669 39.2542 124.175 38.9777L134.599 33.2618C134.932 33.079 135.312 32.9854 135.697 32.9854C136.48 32.9854 137.207 33.3822 137.592 34.0287C137.887 34.5102 137.967 35.0765 137.812 35.6115C137.657 36.151 137.301 36.6013 136.794 36.8778L126.371 42.5981C126.038 42.772 125.658 42.8701 125.273 42.8701Z" fill="#E60088"/>
<path d="M104.276 22.9128C103.891 22.9128 103.511 22.8147 103.178 22.6363C102.132 22.0567 101.775 20.7816 102.381 19.7873L108.399 9.88029C108.789 9.23825 109.516 8.83698 110.295 8.83698C110.679 8.83698 111.059 8.93506 111.392 9.11341C112.438 9.68411 112.8 10.9637 112.194 11.9625L106.176 21.8695C105.786 22.516 105.059 22.9128 104.276 22.9128Z" fill="#E60088"/>
</g>
<defs>
<filter id="filter0_d" x="0" y="0" width="151.185" height="139.023" filterUnits="userSpaceOnUse" color-interpolation-filters="sRGB">
<feFlood flood-opacity="0" result="BackgroundImageFix"/>
<feColorMatrix in="SourceAlpha" type="matrix" values="0 0 0 0 0 0 0 0 0 0 0 0 0 0 0 0 0 0 127 0"/>
<feOffset dy="4"/>
<feGaussianBlur stdDeviation="2"/>
<feColorMatrix type="matrix" values="0 0 0 0 0 0 0 0 0 0 0 0 0 0 0 0 0 0 0.25 0"/>
<feBlend mode="normal" in2="BackgroundImageFix" result="effect1_dropShadow"/>
<feBlend mode="normal" in="SourceGraphic" in2="effect1_dropShadow" result="shape"/>
</filter>
</defs>
</svg>
