<svg id="SvgjsSvg1011" width="288" height="288" xmlns="http://www.w3.org/2000/svg" version="1.1" xmlns:xlink="http://www.w3.org/1999/xlink" xmlns:svgjs="http://svgjs.com/svgjs"><defs id="SvgjsDefs1012"></defs><g id="SvgjsG1013"><svg xmlns="http://www.w3.org/2000/svg" width="288" height="288" viewBox="0 0 42 48"><path fill="#101010" d="M42 19.6875V11.5312C41.9062 11.5312 41.9062 11.5312 41.9062 11.5312C39.6562 11.5312 37.5 10.875 35.7188 9.65625C33.0938 7.96875 31.2188 5.25 30.6562 2.15625C30.4688 1.5 30.4688 0.84375 30.4688 0.1875C30.4688 0.09375 30.4688 0.09375 30.4688 0H22.2188V32.8125C22.2188 36.6562 19.0312 39.8438 15.1875 39.8438C11.3438 39.8438 8.15625 36.6562 8.15625 32.8125C8.15625 28.9688 11.3438 25.7812 15.1875 25.7812C15.9375 25.7812 16.5938 25.875 17.3438 26.1562V17.7188C16.5938 17.625 15.9375 17.5312 15.1875 17.5312C6.75 17.5312 0 24.375 0 32.8125C0 41.25 6.75 48 15.1875 48C23.625 48 30.4688 41.25 30.4688 32.8125V16.0312C33.6562 18.375 37.5938 19.6875 41.9062 19.6875H42Z" class="colorfff svgShape"></path></svg></g></svg>