<svg id="SvgjsSvg1001" width="288" height="288" xmlns="http://www.w3.org/2000/svg" version="1.1" xmlns:xlink="http://www.w3.org/1999/xlink" xmlns:svgjs="http://svgjs.com/svgjs"><defs id="SvgjsDefs1002"></defs><g id="SvgjsG1008" transform="matrix(1,0,0,1,0,0)"><svg xmlns="http://www.w3.org/2000/svg" width="288" height="288" viewBox="0 0 42 42"><path fill="#0c0c0c" d="M37.5 0H4.5C1.96875 0 0 2.0625 0 4.5V37.5C0 40.0312 1.96875 42 4.5 42H37.5C39.9375 42 42 40.0312 42 37.5V4.5C42 2.0625 39.9375 0 37.5 0ZM32.9062 14.9062C32.9062 15.1875 32.9062 15.4688 32.9062 15.75C32.9062 23.8125 26.7188 33.1875 15.375 33.1875C11.9062 33.1875 8.71875 32.25 6 30.4688C6.46875 30.5625 6.9375 30.5625 7.40625 30.5625C10.3125 30.5625 12.9375 29.5312 15.0938 27.9375C12.375 27.8438 10.125 26.0625 9.28125 23.625C10.3125 23.8125 11.1562 23.8125 12.0938 23.5312C9.28125 22.9688 7.21875 20.5312 7.21875 17.5312V17.4375C7.96875 17.9062 8.90625 18.1875 9.9375 18.1875C8.25 17.0625 7.21875 15.1875 7.21875 13.125C7.21875 11.9062 7.5 10.875 8.0625 9.9375C11.0625 13.6875 15.6562 16.125 20.7188 16.4062C19.875 12.2812 22.9688 8.8125 26.7188 8.8125C28.5 8.8125 30.0938 9.5625 31.2188 10.7812C32.625 10.5 33.9375 10.0312 35.1562 9.28125C34.6875 10.7812 33.6562 11.9062 32.4375 12.6562C33.6562 12.5625 34.875 12.1875 36 11.7188C35.1562 12.9375 34.0312 14.0625 32.9062 14.9062Z" class="colorfff svgShape"></path></svg></g></svg>